<?xml version="1.0" encoding="UTF-8"?>
<svg id="Layer_2" data-name="Layer 2" xmlns="http://www.w3.org/2000/svg" viewBox="0 0 1742.48 900.78">
  <defs>
    <style>
      .cls-1 {
        stroke: #000;
      }

      .cls-1, .cls-2 {
        fill: none;
        stroke-miterlimit: 10;
      }

      .cls-2 {
        stroke: #fff;
      }
    </style>
  </defs>
  <g id="Layer_1-2" data-name="Layer 1">
    <g>
      <path class="cls-2" d="M66.1.41c-8.93,6.06-17.7,12.13-25.27,18.93C6.18,50.47-8.12,102.42,5.74,146.89c5.96,19.14,17.36,37.4,34.77,47.32,17.57,10.01,39.03,10.44,59.05,7.67,102.13-14.11,202.95-35.64,305.99-43.72,48.67-3.81,97.48-5.84,146.3-5.6,44.11.22,92.99-2.06,135.84,9.2,10.17,2.67,20.48,6.65,27.56,14.42,10.89,11.96,11.65,30.36,7.02,45.86-6.05,20.28-19.83,37.38-35.04,52.1-57.49,55.65-136.55,82.94-214.65,100.31-78.1,17.38-158.42,26.64-233.64,53.9-35.3,12.8-90.21,53.86-56.96,96.99,10.66,13.83,28.86,19.28,46.1,22.02,74.2,11.78,153.41-14.21,206.2-67.66,21.58-21.85,44.57-54.64,79.11-52.89,24.91,1.26,45.61,22.12,53.46,45.8s5.15,49.53.07,73.95-12.48,48.53-13.86,73.44c-1.38,24.9,4.14,51.54,21.5,69.45,13.71,14.15,33.61,21.38,53.3,22,41.75,1.32,77.02-22.49,104.45-51.82,23.62-25.25,43.04-54.11,65.54-80.32,20.96-24.41,44.8-26.65,59.86,4.61,18.01,37.38,24.27,79.13,31.11,120.05,8.06,48.22,17.96,98.77,49.13,138.04,22,27.72,55.45,47.97,90.83,47.45,27.56-.41,54.05-13.37,74-32.39,62.57-59.66,63.49-163.77,71.64-244.38,7.4-73.22,17.84-148.91,57.13-211.14,12.37-19.59,32.19-41.51,55.56-47.36,28.94-7.25,43.38,16.78,52.96,40.18,29.71,72.52,33.56,152.41,56.2,226.99,10.07,33.17,24.35,66.18,49.24,90.31s62.26,37.74,95.19,26.91c39.45-12.98,66.31-57.33,81.81-93.54,19.78-46.22,25.28-98.78,14.64-147.97-10.23-47.3-34.27-90.44-60.66-131.01-6.02-9.26-12.29-21.28-6.35-30.6,18.15-28.43,68.24-4.15,89.89,6.31,15.69,7.58,68.03,42.7,82.14,52.99"/>
      <g>
        <line class="cls-1" x1="1039.78" y1="878.49" x2="1017.85" y2="900.43"/>
        <line class="cls-1" x1="1039.78" y1="900.43" x2="1017.85" y2="878.49"/>
      </g>
    </g>
  </g>
</svg>