<?xml version="1.0" encoding="UTF-8"?>
<svg id="Layer_2" data-name="Layer 2" xmlns="http://www.w3.org/2000/svg" viewBox="0 0 417.86 417.52">
  <defs>
    <style>
      .cls-1 {
        fill: none;
        stroke: #000;
        stroke-miterlimit: 10;
        stroke-width: 29px;
      }
    </style>
  </defs>
  <g id="Layer_2-2" data-name="Layer 2">
    <path class="cls-1" d="M240.62,336.26s46.67-49,95.67,0M336.29,236.6s-51.98,47.68,0,99.67M337.28,80.59c-49,49,0,95.67,0,95.67M237.61,80.59s47.68,51.98,99.67,0M173.28,339.94s-46.67-49-95.67,0M77.61,339.94c51.98-51.98,0-99.67,0-99.67M75.83,171.5s49-46.67,0-95.67M75.83,75.83c51.98,51.98,99.67,0,99.67,0M71.7,71.72L10.25,10.28M407.61,10.25l-66.22,66.22M340.75,340.38l66.86,66.86M10.25,407.26l63.19-63.19"/>
  </g>
</svg>