<?xml version="1.0" encoding="UTF-8"?>
<svg id="Layer_2" data-name="Layer 2" xmlns="http://www.w3.org/2000/svg" viewBox="0 0 358.9 167.61">
  <defs>
    <style>
      .cls-1 {
        stroke-width: 0px;
      }
    </style>
  </defs>
  <g id="Layer_1-2" data-name="Layer 1">
    <path class="cls-1" d="M208.04,82.51c-1.65,1.93,3.57,2.62,3.71,2.71,1.49.92,1.08,3.08,2.75,3.82,1.27.56,2.88.22,3.8-.81-.08,2.89,2.97,5.08,5.85,5.12s5.55-1.46,8-2.99c11.42-7.14,21.69-15.96,32.89-23.43,8.39-5.59,17.28-10.4,26.15-15.2,1.23-.67,2.61-1.36,3.97-1.04.63,4.6-3.47,8.31-7.06,11.25-9.08,7.44-17.12,15.77-24.67,24.73-1.96,2.33-3.93,4.66-5.93,6.95-1.37,1.57-2.27,3.43-3.4,5.14-2.11,3.2-4.13,6.47-6.17,9.72-.21.34-.71.75-.37,1.12.33.34.78-.03,1.16-.26.58-.34,1.2-.59,1.82-.87,1.66-.75,3.19-1.56,4.01-3.4.71-1.6,2.55-1.59,3.92-2.18,2.68-1.14,5.48-2.02,8.14-3.21,7.59-3.4,14.6-9.94,21.39-14.71,1.94-1.37,3.89-2.74,5.99-3.86,2.92-1.57,6.1-2.66,8.87-4.49,4.88-3.23,8.09-8.52,12.86-11.92,2.89-2.06,6.25-3.35,9.57-4.62-.27.47-.54.95-.81,1.42,6.67-3.39,15.2-.87,21.88-4.25,3.49-1.77,6.03-4.93,8.63-7.85.46-.52,1.71-.57,1.41.05.84-1.14,1.68-2.27,2.51-3.41-.93,1.27-1.24,4.81-1.79,6.51-.32.98-1.16,1.59-1.77,2.36-1.93,2.4-3.93,4.75-5.93,7.09-.71.83-1.78,1.16-2.7,1.69-2.97,1.74-5.97,3.42-9.02,5.16.24.26.39.53.61.64,1.62.75,2.11,2.17,2.44,3.78,1.13,5.53,3.21,9.91.05,15.35-2.22,3.83-5.81,6.65-9.33,9.34-12.17,9.26-24.68,18.04-37.2,26.82-7.1,4.98-14.26,10-22.16,13.56-8.14,3.67-16.99,5.73-25.91,6.04-4.02.14-8.07-.07-12.05.53-8.87,1.32-16.61,6.47-24.56,10.62s-17.2,7.45-25.76,4.77c-2.87-.9-5.98-3.73-4.62-6.41.51-1,1.53-1.63,2.5-2.2,10.19-6.02,20.38-12.05,30.56-18.07,1.76-1.04,14.59-7.41,14.18-9-.45-1.76-13.39,3.36-15.17,3.96-1.89.64-3.73.91-5.66.1-.75-.31-1.34-.66-1.59-1.44-.37-1.12-1.18-1.62-2.28-1.98-2.48-.82-4.85-1.92-7.17-3.14-1.19-.63-1.83-1.5-1.96-2.72-.12-1.11-.59-1.2-1.45-.8-.21.1-.44.19-.74-.02,1.07-1.17,2.53-1.84,3.68-3.01-.64-.29-1.09.05-1.54.21-6.98,2.39-13.7,5.41-20.51,8.21-.43.18-.85.29-1.31.2,2.45-5.64,3.88-11.95,5.72-17.83.18-.57.37-1.15.77-1.59.42-.46,1.01-.7,1.59-.94,9.11-3.73,17.79-8.52,25.8-14.25.86-.61,1.75-1.3,2.12-2.28.57-1.54.25-3.54,1.32-4.79ZM167.53.8c-2.11,4.43.31,10.2,4.31,13.23,4.25,3.22,9.74,4.16,14.98,5.13,9.43,1.74,18.8,3.86,28.06,6.34,1.3.35,2.66.73,3.64,1.65.99.92,1.46,2.54.68,3.64-.45.63-1.19.96-1.9,1.25-12.03,4.93-25.51,6.24-38.26,3.71-1.73,3.43.13,7.84,3.27,10.05,3.15,2.2,7.2,2.63,11.04,2.52,6.53-.2,13.01-1.78,18.89-4.62,4.12-1.99,8.03-4.62,12.51-5.57-.2,2.27-2.55,3.62-3.95,5.42-1.95,2.51-2.03,5.95-2.27,9.12-.26,3.44-.8,6.86-1.62,10.21-.2.82-.43,1.66-.96,2.31-.77.93-2.01,1.31-3.18,1.6-11.94,3.03-24.78,3.36-35.63,9.18.32-.18-.99-5.25-1.15-6.04.09-1.41-1.47-2.81-2.31-3.75-1.3-1.45-3.06-1.59-4.98-.88-2.61.96-5.16,2.04-7.62,3.33-.59.31-1.21.54-1.75.99-2.11,1.71-3.4,4.02-4.73,6.3-.77,1.32-1.41,3.32-2.81,3.9-.98-2.47.08-5.6.23-8.18.19-3.21-.47-6.39-1.13-9.54-.79-3.78-1.74-8.64-4.83-11.3-3.43-2.95-8.95,2.82-11.55,5.5-.78.8-1.4,1.87-2.7,2.01-.28.03-.31.32-.4.54-.62,1.41-1.43,2.73-1.9,4.23-6.39,20.64-11.65,41.17-13.48,62.81,2.99-1.97,6.06-3.98,9.54-4.83s7.51-.34,10.04,2.19c-5.44,1.89-10.62,4.5-15.38,7.73-1.69,1.15-3.5,2.72-3.42,4.77.08,2.08,2.12,3.54,4.1,4.2,5.31,1.76,11.07.15,16.46-1.33.72-.2,1.48-.39,2.19-.17.54.17.97.56,1.4.93,4.85,4.09,11.89,5.38,17.87,3.27,4.18-1.47,7.99-4.88,8.58-9.28-2.11-.94-4.39-1.53-6.7-1.72.42-.25.73-.68.82-1.16-5.1-2-10.69-4.73-12.35-9.95-1.42-4.49.67-9.42,3.71-13.03,4.21-5.01,11.05-12.4,17.66-13.96.81-.19,1.66-.29,2.48-.11,2.61.6,3.67,3.67,4.29,6.28,0-3.52,0-7.05-.01-10.57,6.24-1.43,12.32-3.3,18.49-4.96.72-.19,1.45-.48,2.07-.89,2.62-1.72,5.68-1.8,8.61-2.39.58-.12,1.17-.16,1.76-.23.44-.04.72-.34.97-.64,1.39-1.66,3.24-2.66,5.11-3.62,5.6-2.9,11.05-6.05,16.2-9.69,5.1-3.61,10.21-7.23,15.13-11.08,4.98-3.89,9.82-7.96,14.55-12.16,4.42-3.92,9.97-7.95,13.52-12.66-4.36.85-8.42,1.89-12.96,1.61-.63-.04-1.27-.09-1.86.13-.63.24-1.11.77-1.56,1.28-2,2.28-3.99,4.56-5.99,6.84-.36-.35-.51-.9-.39-1.38-2.28,1.84-4.64,3.57-7.06,5.21-1.16.78-2.45,1.57-3.84,1.42s-2.64-1.75-1.91-2.94c-1.58-.25-2.52,1.93-4.08,2.25-.72.15-1.45-.12-2.18-.18-2.98-.22-5.05,2.97-7.89,3.89-.38-.51-.75-1.01-1.13-1.52-.65.15-1.31.3-1.96.45,7.56-9.96,14.94-20.04,22.15-30.25-5.08-1.13-10.43-1.01-15.45.34-3.51.94-7.04,2.49-10.64,1.93-5.44-.85-9.09-6.2-14.3-7.98-4.24-1.46-9.06-.39-13.24-2.02-1.83-.72-3.44-1.91-5.22-2.75-2.73-1.29-5.78-1.69-8.69-2.49-2.91-.8-5.88-2.13-7.53-4.66-.16.26-.31.53-.44.8ZM136.08,76.22c2.48,1.07,5.12,2.46,7.54,3.63,1,.49,1.92,1.14,2.95,1.53,2.07.78,1.94,2.7,2.49,4.29-1.08-.57-1.61-1.62-2.44-2.4-2.17-2.07-4.59-3.73-7.29-5.03-1.07-.52-1.82-1.3-2.36-2.57-.19-.01-.88.41-.98.22-.03-.02-.07-.04-.1-.06.03.02.07.04.1.05-.11.11-.02.15.09.33ZM22.69,58.9c-3.86,11.7-2.52,24.72-1.03,37.09.26,2.12.47,4.42-.65,6.24-.62,1-1.59,1.73-2.52,2.45-5.43,4.19-10.47,8.88-15.06,13.97-1.49,1.66-2.99,3.48-3.35,5.67-.47,2.88,1.41,5.97,4.19,6.87,1.49.48,3.45.62,4,2.09.22.59.13,1.24.05,1.86-.36,2.95-.25,6.04.92,8.78,3.57,8.37,13.26,7.29,20.71,7.23.46,0,.8.04,1.02.57,1.74,4.14,5.86,6.46,10.48,5.81.69-.1,1.23-.05,1.79.29,2.45,1.48,5.18,2.12,7.95,2.63,5.08.93,7.74,5.18,12.65,6.54,4.88,1.35,10.45.47,14.46-2.71.44-.35.91-.74,1.47-.75.41,0,.8.19,1.17.37,6.5,3.2,14.18,2.24,21.35,1.2,1.95-.28,3.99-.6,5.54-1.8,3.34-2.58,2.91-7.77,5.06-11.41-.82.84-2.25,1.01-3.24.39.13.08.8-8.09.71-8.93-.34-3.1-1.22-5.85-2.91-8.44-3.09-4.74-7.78-8.73-9.19-14.4-1.53-6.15,1.39-12.64.49-18.91-.51-3.56-2.21-6.84-3.01-10.35-1.29-5.6-.22-11.44.69-17.11,1.28-8.02,2.25-16.09,2.9-24.18.08-1.05.14-2.2-.44-3.08-2.34,6.77-4.67,13.53-7.01,20.3.62.45,1.46.33,2.22.39s1.66.57,1.55,1.32c-.15.97-1.52.91-2.49,1.07-2.38.41-3.22,3.35-3.54,5.74-2.94,21.94-3.85,44.1-5.03,66.2-.16,2.96-.33,5.97-1.31,8.77-.98,2.8-2.89,5.41-5.64,6.54-2.58,1.06-5.57.68-8.15-.4-4.46-1.87-8.19-6.6-7.07-11.31.28-1.16.85-2.28,1.76-3.06.59-.5,1.29-.85,1.92-1.3.81-.58,1.48-1.33,2.08-2.11,8.77-11.36,5.96-30.58.54-42.83-.05,1.01-.65,1.97-1.53,2.46-.92-5.41-1.44-10.88-1.57-16.37-.53,2.1-1.05,4.19-1.58,6.29-.07-14.14,2.47-28.36.33-42.34-1.35.96-3.43.71-4.5-.56-.61,15.88-2.13,31.61-5.69,47.13-4.15,18.11-10.67,36.3-8.47,54.74.09.75-5.63-.76-6.1-1.02-1.8-.96-3.37-2.56-3.99-4.54-1.27-4.07,1.64-9.89,6.56-8.79-.8-9.71,7.82-18.8,5.6-28.29-.74-3.17-2.63-5.93-4.49-8.61-2.98-4.29-7.95-5.08-9.65-10.56-.9-2.92-.89-6.04-.67-9.09.88-11.86,4.9-23.33,5.71-35.2-4.38,12.72-8.38,25.33-11.98,38.3-4-7.48-4.94-16.54-2.57-24.68-.56,1.25-1.04,2.52-1.46,3.81ZM62.07,71.8c-.03,1.25-.31,2.49-.45,3.73-.11.99-.49,1.77-1.7,2.11.68-2.97,1.22-5.89,2.2-8.71.48.98-.03,1.91-.05,2.86ZM274.73,30.09v-.07s-.07.02-.07.02l.07.04Z"/>
  </g>
</svg>