<?xml version="1.0" encoding="UTF-8"?>
<svg id="Layer_2" data-name="Layer 2" xmlns="http://www.w3.org/2000/svg" viewBox="0 0 1317.09 1377.69">
  <defs>
    <style>
      .cls-1 {
        stroke-width: 0px;
      }
    </style>
  </defs>
  <g id="Layer_1-2" data-name="Layer 1">
    <path class="cls-1" d="M1039.16,823.95c84.45-237.38,179.83-299.65,245.82-309.6,35.03-5.28,45.38,46.35,10.82,53.96-64.13,14.13-178.36,2.58-368.81-119.37-218.74-140.07-156.99-374.13,28.81-442.05,155.13-56.71,404.39,244.54-12.45,625.79-305.31,279.25-657.55,71.92-782.49-63.48-58.43-63.32-17.73-165.8,68.45-169.49,74.96-3.21,155,73.95,170.81,400.7,12.72,263.02-33.77,418.22-99.45,508.89-122.79,169.53-387.17-8.43-272.48-183.43,75.81-115.67,259.73-196.49,685.35-84.69,208.04,54.65,305.96,107.72,351.61,147.98M59.82,537.92v317.67"/>
  </g>
</svg>