<?xml version="1.0" encoding="UTF-8"?>
<svg id="Layer_2" data-name="Layer 2" xmlns="http://www.w3.org/2000/svg" viewBox="0 0 343.33 174.24">
  <defs>
    <style>
      .cls-1 {
        fill: none;
        stroke: #000;
        stroke-miterlimit: 10;
      }
    </style>
  </defs>
  <g id="Layer_1-2" data-name="Layer 1">
    <path class="cls-1" d="M64.25,16.81C74.93,3.83,92.02-.68,108.35,1.11c6.98.76,13.98,3.38,18.8,8.48,4.27,4.51,6.49,10.52,8.87,16.26,4.45,10.75,9.81,21.13,13.69,32.1,8.69,24.59,9.53,51.96,1.88,76.89-1.41,4.58-3.33,9.39-7.34,12.02-10.43,6.82-17.02-8.31-17.29-16.24-.21-6.03,1.36-11.84,2.91-17.63.49-1.81,1.5-3.54,1.31-5.47-.56-5.69-1.07-11.37-3.48-16.71-.5-1.1-1.51-1.85-1.74-3.06M76.03,74.41c.77.96.19,2.07.04,2.96-2.72,16.76-4.44,33.7-4.86,50.69-.24,9.85-4.21,37.22,6.47,42.88,4.9,2.6,11.26-.57,14.12-5.33,2.86-4.76,3.16-10.56,3.49-16.11.84-14.05,2.32-28.09,5.02-41.91,2.49-12.72,3.59-27.3,13.34-36.9M69.72,13.43c-1.39.66-2.1,2.12-3.44,2.88-2.03,1.14-4.15,2.06-6.33,2.82-6.55,2.29-13.02,4.78-19.17,8-2.54,1.33-4.94,2.92-7.39,4.4-2.95,1.78-6.02,3.38-9.08,4.95-3.4,1.74-6.04,4.1-8.11,7.3-1.97,3.04-4.27,5.86-6.16,8.96-1.99,3.27-3.89,6.59-5.13,10.24-2.14,6.31-3.84,12.72-4.29,19.41-.3,4.5.06,8.97.34,13.46.36,5.69,1.18,11.33,1.45,17.03.19,3.93.1,7.87.28,11.79.16,3.34-.35,6.6-.65,9.89-.33,3.72,2.25,7.53,5.72,7.74,2.51.15,4.75-.62,6.79-2.03.12-.09.23-.12.36-.11M266.19,73c-4.66,4.31-9.28,8.67-13.95,12.97-3.97,3.65-7.86,7.39-11.81,11.06-3.58,3.33-7.04,6.78-10.47,10.25-2.68,2.72-5.32,5.48-7.99,8.21-.33.34-.49.71-.63,1.18-.3,1-.57,2.01-.92,2.99-.45,1.25-.56,2.39-.06,3.72,1.74,4.6,4.37,8.14,10.12,6.96,3.25-.67,6.02-2.7,8.67-4.69,14.27-10.71,28.25-21.81,41.91-33.28,5.43-4.56,11.2-9.37,18.2-10.49,3.26-.52,6.59-.2,9.87-.44,12.89-.95,23.99-10.8,29.04-22.69,5.27-12.4,7.98-36.9-2.55-47.47-3.43-3.45-8.17-5.21-12.79-6.77-11.45-3.86-25.04-6.79-34.82.31-1.17.85-2.27,1.83-3.61,2.35-2.01.77-4.26.39-6.38,0-8.12-1.49-16.28-2.92-24.51-3.49-7.66-.53-15.36-.32-22.98.62-7.14.88-14.4,3.61-21.41,3.38-16.58-.56-32.72-1.84-49.41-1.23-4.3.16-9.24.65-11.69,4.19-1.89,2.73-1.55,6.58.18,9.41,1.73,2.83,4.63,4.76,7.67,6.11,12.88,5.71,27.45,5.02,40.36,10.42,1.96.82,3.94,1.77,6.07,1.88M17.15,55.02c1.61,8.34-3.18,16.49-4.58,24.52-1.62,9.29-1.34,18.83-.55,28.19,1.15,13.7,3.39,27.41,2.43,41.12-.25,3.56-.65,7.41,1.18,10.47,2,3.35,6.4,4.82,10.22,3.98,7.61-1.68,10.91-9.61,11.76-16.57,2.58-20.94-3.66-43.66,4.18-63.76M42.91,70.83c.21.19.34.41.36.71.14,1.92-.01,3.84-.29,5.71-.34,2.26-.85,4.46-1.02,6.79-.34,4.45-1.06,8.89-1.41,13.35-.25,3.17-.24,6.35.09,9.53.39,3.69.89,7.37,1.07,11.08.18,3.81.3,7.62.36,11.43.15,8.56-.07,17.1-1.25,25.61-.47,3.41-.75,6.88-.08,10.36.45,2.35,1.43,4.18,3.48,5.49,2.07,1.33,4.33,2.18,6.69,2.68,1.7.36,3.53.15,4.97-.83,24.56-16.57,8.4-63.13,14.8-87.27,3.13-11.82,9.95-23.57,7.21-35.49M255.81,39.75c-1.36.8-2.24,2.13-3.44,3.12-1.29,1.06-2.65,1.96-4.19,2.6-1.7.71-2.65,2.2-3.68,3.58-10.76,14.45-29.95,26.04-45.48,34.61-5.21,2.87-11.18,6.36-12.03,12.25-.25,1.73,0,3.49-.2,5.23-.56,4.89-4.54,9.11-4.18,14.02.43,5.88,7.44,9.58,13.2,8.3,9.39-2.08,12.39-11.69,18.11-18.1,2.28-2.56,5.03-4.66,7.75-6.74,11.93-9.11,23.96-18.29,37.46-24.85,8.41-4.08,13.61-7.94,19.42-15.2M179.92,32.13c-1.55,1.72-3.47,2.96-5.49,4.03-2.05,1.09-4.02,2.4-6.31,2.98-1.81.46-3.56,1.09-5.36,1.55-1.84.47-2.84,1.97-4.04,3.23-.12.12-.1.39-.13.59-.36,2.34-.69,4.69-1.11,7.02-.06.32-.07.67.05.82.99,1.22,1.88,2.61,3.11,3.55,2.68,2.04,5.55,3.78,9.14,3.62.76-.03,1.49.25,2.27.13,3.65-.58,7.31-1.07,10.95-1.7,1.83-.32,3.71-.36,5.49-1.03,3.48-1.31,6.33-3.69,9.53-5.49,2-1.13,4.25-1.61,6.43-2.26.1-.03.24.07.35.11M193.26,87.03c.04-.48.02-.97.13-1.43,1.06-4.61,2.19-9.2,3.19-13.82.64-2.97,1.51-8.83,1.82-11.87M236.03,16.17c-13.02,8.3-19.54,23.33-31.07,33.48-3.22,2.83-6.94,6.15-6.68,10.42M107.72,80.6c6.42,4.12,13.06,7.94,19.95,11.22M187.42,102.04c1.34.78,2.19,2.1,3.33,3.1.42.37.87.74,1.18,1.19,1.73,2.5,4.39,2.69,7.04,2.83,1.58.09,4.44,1.28,7.04-.06M202.44,37.72c-.34.66.18.44.48.48.93.11,1.83-.15,2.74-.24,1.34-.13,2.65.17,3.93.49,1.75.43,3.53.41,5.31.58M210.06,106.21c-.77.07-1.36.39-1.67,1.13-.13.31-2.19,1.66-2.37,1.77M43.36,47.14c-.43,2.87-2.08,5.4-2.98,8.17-1.64,5.01-.6,10.8,2.66,14.94M43.98,55.11c-.98,1.4-1.15,3.03-1.16,4.65-.01,1.64-.27,3.25-.28,4.88,0,.56-.22,1.1-.58,1.55M262.12,72.14c.86.71,1.99.96,2.86,1.67M73.05,77.39c.88.35,1.8.49,2.74.48M223.54,65.7c-2.72.82-3.48,3.17-3.71,4.4M210.54,105.37c.56.08,1.02-.07,1.44-.47.35-.34.75-.66,1.3-.48M300.6,80.84c-.39.21-.99,0-1.19.6M285.83,7.12c.77.42,1.46.14,2.14-.24"/>
  </g>
</svg>