<?xml version="1.0" encoding="UTF-8"?>
<svg id="Layer_2" data-name="Layer 2" xmlns="http://www.w3.org/2000/svg" xmlns:xlink="http://www.w3.org/1999/xlink" viewBox="0 0 880.52 878.28">
  <defs>
    <style>
      .cls-1 {
        fill: blue;
      }

      .cls-1, .cls-2 {
        stroke: blue;
        stroke-miterlimit: 10;
      }

      .cls-3 {
        fill: none;
        stroke-width: 0px;
      }

      .cls-2 {
        fill: #ececec;
      }

      .cls-4 {
        clip-path: url(#clippath);
      }
    </style>
    <clipPath id="clippath">
      <rect class="cls-3" x="118.71" y="197.46" width="586.43" height="613.9"/>
    </clipPath>
  </defs>
  <g id="Layer_1-2" data-name="Layer 1">
    <path class="cls-2" d="M47.09,541.57c3.41,0,6.67.62,9.69,1.74-.11-1.26-.18-2.54-.18-3.83,0-18.84,12.11-34.85,28.96-40.69-3.03-7.3-4.71-15.3-4.71-23.7,0-29.6,20.79-54.33,48.55-60.43,7.61-36.18,39.7-63.34,78.14-63.34s69.3,26.15,77.67,61.3c8.28-3.91,17.52-6.1,27.28-6.1,25.18,0,46.95,14.55,57.39,35.7,33.71,4.25,60,32.3,61.49,66.79,11.15,9.12,18.27,22.99,18.27,38.52,0,27.48-22.28,49.76-49.76,49.76h-198.76c-1.39.09-2.78.16-4.19.16s-2.8-.06-4.19-.16H47.09s.08-.11.08-.11c-.03,0-.05,0-.08,0-15.36,0-27.81-12.45-27.81-27.81s12.45-27.81,27.81-27.81Z"/>
    <path class="cls-2" d="M761.9,343.55c-6.15,0-12.03,1.11-17.47,3.14.2-2.28.32-4.58.32-6.9,0-33.97-21.83-62.83-52.21-73.37,5.46-13.16,8.48-27.6,8.48-42.74,0-53.37-37.47-97.98-87.54-108.98C599.75,49.47,541.88.5,472.57.5s-124.98,47.13-140.08,110.5c-14.92-7.04-31.58-10.98-49.16-10.98-45.39,0-84.65,26.22-103.48,64.33-60.8,7.65-108.22,58.27-110.89,120.49-20.1,16.45-32.92,41.45-32.92,69.45,0,49.55,40.17,89.72,89.72,89.72h358.03c2.61.18,5.25.28,7.91.28s5.3-.1,7.91-.28h262.28l-.14-.19s.09,0,.14,0c27.69,0,50.14-22.45,50.14-50.14s-22.45-50.14-50.14-50.14Z"/>
    <polygon class="cls-1" points="134.99 214.65 134.62 701.99 134.52 833.07 720.96 833.51 721.06 702.42 721.42 215.09 134.99 214.65"/>
    <path class="cls-2" d="M301.85,835.95c-2.55,0-5,.46-7.25,1.3.08-.95.13-1.9.13-2.87,0-14.11-9.06-26.09-21.68-30.46,2.27-5.47,3.53-11.46,3.53-17.74,0-22.16-15.56-40.67-36.35-45.24-5.7-27.08-29.72-47.42-58.5-47.42s-51.88,19.57-58.14,45.89c-6.2-2.93-13.12-4.57-20.42-4.57-18.85,0-35.15,10.89-42.96,26.73-25.24,3.18-44.92,24.18-46.03,50-8.35,6.83-13.67,17.21-13.67,28.84,0,20.57,16.68,37.25,37.25,37.25h148.79c1.04.07,2.08.12,3.13.12s2.1-.05,3.13-.12h109.04l-.06-.08s.04,0,.06,0c11.5,0,20.82-9.32,20.82-20.82s-9.32-20.82-20.82-20.82Z"/>
    <path class="cls-2" d="M784.87,633.35c-.3,0-.59.03-.89.04.57-2.57.89-5.25.89-8,0-20.22-16.39-36.61-36.61-36.61s-36.61,16.39-36.61,36.61,16.39,36.61,36.61,36.61c5.92,0,11.51-1.41,16.46-3.91,1.93,9.36,10.22,16.41,20.15,16.41,11.36,0,20.58-9.21,20.58-20.58s-9.21-20.58-20.58-20.58Z"/>
    <circle class="cls-2" cx="125.34" cy="171.37" r="60.16"/>
    <g class="cls-4">
      <image width="1191" height="1685" transform="translate(117.45 167.54) scale(.5)" xlink:href="../../projects/geothe/Asset 2@2x.png"/>
    </g>
    <path class="cls-2" d="M861.75,789.34c-1.49-34.5-27.78-62.55-61.49-66.79-10.44-21.15-32.21-35.7-57.39-35.7-9.76,0-19,2.19-27.28,6.1-8.37-35.15-39.96-61.3-77.67-61.3s-70.53,27.16-78.14,63.34c-27.77,6.1-48.55,30.83-48.55,60.43,0,8.4,1.68,16.4,4.71,23.7-16.86,5.84-28.96,21.85-28.96,40.69,0,1.29.07,2.57.18,3.83-3.02-1.12-6.28-1.74-9.69-1.74-15.36,0-27.81,12.45-27.81,27.81s12.45,27.81,27.81,27.81c.03,0,.05,0,.08,0l-.08.11h145.66c1.39.09,2.78.16,4.19.16s2.8-.06,4.19-.16h198.76c27.48,0,49.76-22.28,49.76-49.76,0-15.53-7.12-29.4-18.27-38.52Z"/>
    <circle class="cls-2" cx="427.48" cy="185.79" r="36.61"/>
  </g>
</svg>