<?xml version="1.0" encoding="UTF-8"?>
<svg id="Layer_2" data-name="Layer 2" xmlns="http://www.w3.org/2000/svg" viewBox="0 0 340.49 168.48">
  <defs>
    <style>
      .cls-1 {
        fill: #fefefe;
        stroke-width: 0px;
      }
    </style>
  </defs>
  <g id="Layer_1-2" data-name="Layer 1">
    <path class="cls-1" d="M93.17,136.61c-.16,3.79-.22,7.58-.52,11.36-.32,4.12-.47,8.27-1.58,12.3-.2.73-.89,1.25-.77,2.08-.75,1.07-1.78,1.23-2.99,1-.56-.11-.66-.31-.47-.79.17-.44.59-.75.58-1.28-.09-6.84.19-11.54-4.15-17.44-3.15-4.29-7.03-8.39-8.03-13.62-1.05-5.47,1.3-11.08.82-16.63-.4-4.58-2.68-8.78-3.47-13.31-1.17-6.75,1.03-13.4,2.04-20.01,1.04-6.81,1.18-13.75,2.19-20.59.1-.68.17-1.57-.49-1.73-.62-.15.03.56-.3,1.08-.08.12.1.56.06.71-.36,1.54-.49,3.22-.87,4.75-.6,2.39-.94,4.64-2.2,6.78-1.24,2.11-1.47,4.59-2.52,6.78-.57,1.16-1.18,2.82-1.45,4.07-.45,2.41-2.01,4.37-2.45,6.78-.98,5.48-1.96,10.96-1.8,16.57.14,5.13-.86,10.16-1.26,15.25-.43,5.36-.84,10.73-1.05,16.1-.17,4.35-.15,8.71-.5,13.06-.33,4.06-.77,8.11-1.48,12.12-.19,1.09-.64,2-1.49,2.76-1.15,1.03-2.59,1.68-3.66,2.8-.17.18-.5.22-.76.32-4.67,1.96-12.59-1.06-14.39-5.97-.72-1.99-.66-4.18-.3-6.26.16-.93.41-1.91,1.13-2.52.52-.45,1.22-.63,1.82-.95.84-.44,1.5-1.14,2.1-1.87,4.95-6.02,6.11-14.34,5.71-22.12-.37-7.35-1.95-14.64-4.66-21.48-.08,1.12-.71,2.18-1.64,2.8-.91-5.51-1.42-11.1-1.53-16.68-.5,2.23-.99,4.45-1.49,6.68-.76-10.44.62-21.67,1.07-32.15.13-2.95.25-5.97-.53-8.82-.14-.52-.38-1.1-.9-1.24-.42-.11-.84.11-1.26.23-1.08.29-2.32-.28-2.81-1.28-.05,20.8-3.52,41.49-8.85,61.59-2.72,10.24-5.95,20.58-5.57,31.16.07,2.06,1.26,6.24.47,8.12-.82,1.96-5.7,1.44-7.24.64-2.6-1.35-3.65-6.11-3.12-8.73.65-3.22,4.02-5.91,7.18-5.04.2-5.93,1.5-11.83,3.81-17.3.7-1.65,1.49-3.28,1.78-5.04.33-2.03-.04-4.12-.63-6.1-1.76-5.89-4.9-10.1-9.91-13.3-2.56-1.64-4.05-4.6-4.56-7.6s-.16-6.07.22-9.09c.69-5.41,1.52-10.79,2.49-16.16.52-2.89,1.07-5.77,1.67-8.64.45-2.19,1.95-5.85,1.33-7.84-1.64.71-2.03,3.64-2.37,5.32-.95,4.82-2.81,9.4-4.22,14.1-1.09,3.64-2.28,7.24-3.29,10.9-.59,2.13-1.18,4.54-2.23,6.46C.3,86.51-.22,78.1.07,73.6c.23-3.65,1.13-7.24,2.32-10.7,3.01-8.71,8.03-16.81,15.01-22.83,4.12-3.55,8.84-6.32,13.64-8.89,10.23-5.47,20.92-10.08,31.92-13.76-.47-.36-.94-.72-1.41-1.07-.48-.37,9.04-7.48,9.94-8.02,3.7-2.18,7.64-3.91,11.77-5.11,8.69-2.52,18.08-2.75,26.81-.32,7.36,2.05,14.52,6.13,18.41,12.71,2.41,4.07,3.44,8.96,5.05,13.33,1.39,3.77,3.54,7.15,5.44,10.67,2.02,3.74,3.5,7.72,4.94,11.7,1.85,5.14,4.12,10.12,5.96,15.26,1.46,4.1,4.59,9.65,3.18,14.09-.64-1.91-2.28-3.99-4.19-4.63-1.61-.55-3.36,0-4.95.61-2.68,1.03-5.3,2.28-7.55,4.05-3.36,2.64-4.01,7.41-7.21,9.81-1.28-1.52-.38-3.81-.04-5.57.34-1.8.24-3.66.03-5.48-.42-3.57-1.28-7.08-2.13-10.58-.4-1.63-.8-3.28-1.62-4.75-.79-1.43-1.97-2.64-3.37-3.48-.31-.18-.64-.35-.99-.35-.43,0-.82.24-1.18.47-4.72,3.04-9.64,6.29-12.32,11.23-1.05,1.93-1.71,4.05-2.34,6.15-3.57,11.79-7.9,24.29-9.19,36.59-.53,3.76-1.11,7.51-1.6,11.27-.46,3.53-1.02,7.04-1.22,10.6ZM152.83,15.68c1.34.43,2.72.7,4.02.78,1.49.09,3.08,0,4.36.78.97.59,1.62,1.6,2.51,2.3,1.49,1.18,3.5,1.39,5.39,1.56,5.07.46,10.32.96,14.73,3.49,3.57,2.05,6.47,5.36,10.41,6.53.54.16,1.12.28,1.67.12.55-.16.98-.57,1.47-.84,1.86-1.02,4.34.03,6.23-.95.73-.38,1.3-1.03,2.04-1.39,3.3-1.57,9.3-.77,12.85-.64.44.02.92.05,1.23.36,1.89,1.85-19.43,27.79-21.78,30.93l2.09-.67.89,1.28c2.03-.78,4.06-1.57,6.09-2.35.63-.24,1.27-.49,1.9-.73,2.1-.81,4.22-1.63,6.15-2.78.19,1.49.72,3.34,2.21,3.54.84.11,1.63-.4,2.32-.9,2.85-2.01,5.69-4.02,8.54-6.03-.18.45-.04,1.01.34,1.31,1.87-2.14,3.74-4.27,5.61-6.41.37-.43.76-.86,1.26-1.13.5-.27,1.09-.35,1.65-.42,4.68-.62,9.37-1.23,14.05-1.85-13.66,12.94-25.54,24.55-43.41,35.84-5.33,3.37-10.94,5.24-15.88,9.16-1.41,1.11-9.5,5.33-5.98,8.75,1.04,1.01,2.8,1.2,4.03.42-.48,1.43.19,3.16,1.51,3.9s3.14.39,4.11-.77c-.11,1.89,1.2,3.67,2.9,4.49s3.72.79,5.54.29c1.96-.53,3.74-1.56,5.47-2.61,12.08-7.36,22.82-16.71,34.63-24.51,7.43-4.9,15.26-9.17,23.07-13.43,1.67-.91,3.44-1.85,5.34-1.85.49,4.88-3.84,8.74-7.63,11.85-15.99,13.11-30.19,29.04-40.18,47.21,2.1-.53,4.23-1.3,5.75-2.84.77-.77,1.35-1.72,2.18-2.43,1.33-1.15,3.12-1.57,4.8-2.09,11.62-3.61,21.85-13.03,31.73-19.87,10.93-7.57,21.87-15.14,32.8-22.71-.52.43.48,1.04,1.15.98,5.42-.47,10.89-.94,16.1-2.51,3.77-1.13,7.45-2.87,10.47-5.43.73-.62,1.42-1.64,2.21-2.14.68-.43,1.73-.36,2.01-.57,1.23-.91,2.11-2.41,2.75-3.77,2.81-5.89,4.11-13.39,3.91-19.72-.16-5.06-.32-7.73-.48-12.79-.04-1.18-1.87-6.33-2.2-7.46-.37-1.24-1.9-3.46-2.7-4.48-5.12-6.58-12.76-8.34-20.81-10.49-9.42-2.52-21.7-3.77-29.85,3.17-1.04.89-2.79,1.3-4.05,1.82-2.17.9-4.63-.13-6.88-.78-11.11-3.19-20.89-2.09-32.4-3.25-5.22-.53-11.92.29-17.03,1.49-3.14.74-11.13,2.8-14.52,2.8-6.02,0-7.33.2-13.18-.53-3.51-.44-6.61-.17-10.13-.44-4.03-.3-7.81-.16-11.85-.5-3.29-.27-5.69-.45-8.96-.13-1.65.16-4.81-.25-6.4.17-2.15.57-3.03.12-5.6.48-1.13.16-2.73,1.14-3.85.91-.23-.05-.45-.15-.68,0-1.3.88-2.56,2.42-3.62,3.54,1.65,2.69,4.41,3.89,7.55,4.91ZM251.93,40.73v.07s-.09-.04-.09-.04l.09-.02ZM145.57,142.03c.23-2.16,1.39-4.04,1.91-6.12.08-.33.31-.62.48-.94-.09-.85.47-1.49.73-2.21,2.1-5.82,3.56-11.66,5.16-17.66-.04-1.53.95-3,.59-4.51-.22-1.59-.72-3.11-1.6-4.43-.84-1.25-1.88-2.58-3.63-2.15-1.98.5-4.04.87-5.79,2.02-3.23,2.11-6.04,4.74-8.78,7.41-2.26,2.2-4.16,4.75-6.15,7.2-2.44,3.01-3.57,6.18-2.19,10.06,1.88,5.28,5.74,8.22,10.91,9.78.58.17,1.37.16,1.54.93.18.79-.93.41-1.05,1,.12.23.34.16.52.15,1.76-.06,3.47.05,4.99,1.15.39.28.95.46,1.45.07.24-.62.84-1.04.92-1.75ZM173.23,35.57c-3.67,2.25-7.47,4.3-11.77,5.15-2.11.42-3.94,1.29-5.31,3.04-.46.59-.16,1.09-.1,1.86,2.23.83,3.77,1.71,6.23,1.46.75-.08,1.6-.23,1.89.88.11.4.6.32.95.3,1.78-.08,3.56-.13,5.34-.27,1.38-.11,2.77-.23,4.11-.54,4.24-.98,8.54-1.68,12.85-2.24,3.33-.43,6.24-1.62,8.86-3.64.71-.55,1.14-1.97.6-2.25-1.1-.58-1.72-1.62-2.63-2.37-.22-.18-.44-.3-.72-.37-3.46-.84-6.9-1.74-10.37-2.53-2.19-.5-4.32-1.31-6.58-1.51-.61,1.56-2.1,2.27-3.34,3.03Z"/>
  </g>
</svg>