<?xml version="1.0" encoding="UTF-8"?>
<svg id="Layer_2" data-name="Layer 2" xmlns="http://www.w3.org/2000/svg" viewBox="0 0 1000 1000">
  <defs>
    <style>
      .cls-1 {
        fill: none;
      }

      .cls-1, .cls-2 {
        stroke-width: 0px;
      }

      .cls-2 {
        fill: #00f721;
      }
    </style>
  </defs>
  <g id="Layer_1-2" data-name="Layer 1">
    <path class="cls-2" d="M250.61,102.82c166.26,0,332.52,0,498.78,0-.04.93-.12,1.85-.12,2.78,0,30.65-.03,61.31.04,91.96,0,2.12-.65,3.31-2.45,4.44-30.24,18.9-60.43,37.86-90.64,56.82-36.98,23.21-73.97,46.41-110.95,69.62-37.6,23.59-75.2,47.18-112.8,70.78-.61.38-1.16.85-1.73,1.28.07.15.14.3.21.46.91,0,1.83,0,2.74,0,104.24,0,208.48,0,312.72,0q2.84,0,2.84,2.8c0,163.53,0,327.07,0,490.6q0,2.79-2.86,2.79c-32.1,0-64.2-.02-96.3.04-1.87,0-3.24-.55-4.61-1.76-12.5-11.04-25.04-22.03-37.58-33.03-22.99-20.16-45.98-40.31-68.96-60.48-23.38-20.52-46.74-41.06-70.11-61.57-24.32-21.35-48.66-42.68-72.99-64.02-14.68-12.87-29.35-25.75-44.03-38.62-.55-.48-1.17-.86-2.12-1.56,0,1.46,0,2.38,0,3.29,0,85.01,0,170.02,0,255.03q0,2.68-2.56,2.68c-31.31,0-62.61-.02-93.92.05-2.06,0-2.53-.65-2.53-2.61.04-164.2.04-328.39,0-492.59,0-1.65.49-2.64,1.91-3.52,16.14-10,32.24-20.06,48.36-30.1,45.64-28.45,91.29-56.89,136.94-85.34,42.73-26.62,85.46-53.24,128.18-79.87.55-.35,1.05-.78,1.58-1.18-.07-.15-.14-.3-.21-.45-.91,0-1.83,0-2.74,0-103.71,0-207.42,0-311.13,0q-2.84,0-2.85-2.8c0-30.99,0-61.97,0-92.96,0-.99-.08-1.98-.12-2.97ZM648.98,500.12h-299.04c99.85,87,199.24,173.6,299.04,260.56v-260.56Z"/>
    <rect class="cls-1" width="1000" height="1000"/>
  </g>
</svg>