<?xml version="1.0" encoding="UTF-8"?>
<svg id="Layer_2" data-name="Layer 2" xmlns="http://www.w3.org/2000/svg" viewBox="0 0 234.04 221.41">
  <defs>
    <style>
      .cls-1 {
        fill: #ffce40;
      }

      .cls-1, .cls-2, .cls-3, .cls-4, .cls-5 {
        stroke-width: 0px;
      }

      .cls-2 {
        fill: #ffcd40;
      }

      .cls-3 {
        fill: #fff;
      }

      .cls-4 {
        fill: #231f20;
      }

      .cls-5 {
        fill: #292728;
      }
    </style>
  </defs>
  <g id="Layer_1-2" data-name="Layer 1">
    <g>
      <g>
        <path class="cls-3" d="M170.82,204.32c-40.99,24.67-93.37,18.97-127.85-13.76-13.35,5.84-29.37.83-36.95-11.77-7.71-12.81-4.48-29.44,7.26-38.45-11.01-41.96.33-99.87,43.33-125.75,42.92-25.83,99.31-8.84,131.26,20.44,13.86-8.19,31.82-3.67,40.14,10.15,8.24,13.69,3.99,31.47-9.44,39.98,12.65,45.71-6.84,94.55-47.75,119.17Z"/>
        <path class="cls-1" d="M57.56,16.15c41-24.68,96.85-10.09,130.07,21.15l.98-.59c13.04-7.85,29.98-3.64,37.83,9.4s3.64,29.98-9.4,37.83l-.61.37c12.93,44.4-5.06,93.47-46.55,118.44-41.52,24.99-93.35,17.89-126.54-14.38-12.71,6.25-28.31,1.83-35.75-10.53-7.52-12.49-3.97-28.54,7.79-36.77-12.09-44,1.16-100.22,42.18-124.91M55.67,13.01c-20.12,12.11-34.86,31.92-42.62,57.28-6.86,22.42-7.5,46.94-1.83,69.35-11.69,9.73-14.74,26.84-6.76,40.09,4.06,6.75,10.46,11.67,18.01,13.87,6.67,1.94,13.72,1.61,20.12-.9,35.08,32.58,87.83,38.08,129.18,13.19,41.23-24.82,61.08-73.82,48.92-119.95,13.37-9.3,17.41-27.57,8.9-41.72-8.6-14.29-26.91-19.22-41.46-11.45-17.12-15.37-39-26.21-61.92-30.61-26.03-5-50.42-1.25-70.53,10.85h0Z"/>
      </g>
      <circle class="cls-2" cx="114.96" cy="112.35" r="35.85"/>
      <path class="cls-5" d="M171.12,73.1c-1.18-1.3-2.55-2.46-4.1-3.35-.79-.42-1.6-.81-2.46-1.08-.86-.27-1.74-.46-2.63-.56-1.79-.18-3.6-.01-5.32.46-.86.23-1.7.54-2.51.92-.2.1-.41.2-.61.31l-.16.09-.15.09-.27.17-1.09.66c-1.45.88-2.9,1.76-4.35,2.65-1.9,1.15-3.79,2.3-5.68,3.46.42-1.66.83-3.32,1.25-4.98l1.24-4.92.62-2.46.16-.62c.06-.26.09-.46.13-.69.07-.45.12-.89.14-1.34.1-1.78-.1-3.57-.62-5.29-.26-.86-.63-1.68-1.06-2.47-.21-.4-.47-.77-.71-1.14-.27-.36-.53-.72-.84-1.05-1.17-1.36-2.63-2.44-4.18-3.28-1.55-.84-3.21-1.45-4.89-1.89-1.68-.44-3.41-.75-5.17-.83-1.76-.08-3.55.07-5.28.54l-.64.2-.32.1-.31.12c-.21.08-.42.16-.63.25l-.61.29c-.8.41-1.57.88-2.28,1.44-1.41,1.12-2.59,2.5-3.49,4.03-.45.77-.84,1.56-1.16,2.4-.08.21-.15.42-.22.64-.03.11-.07.22-.1.34l-.08.31-.31,1.23c-.41,1.64-.82,3.28-1.23,4.91-.54,2.16-1.08,4.31-1.62,6.47-.11-.18-.22-.36-.33-.55-1.51-2.49-3.02-4.97-4.53-7.46l-1.13-1.87-.57-.93-.28-.47c-.04-.07-.11-.18-.16-.26-.06-.08-.11-.17-.17-.24-.91-1.26-2-2.34-3.24-3.26-.62-.45-1.28-.86-1.97-1.22-.69-.35-1.41-.64-2.15-.87-1.49-.44-3.05-.64-4.6-.56-1.55.08-3.06.41-4.5.9-.36.13-.72.25-1.07.4l-1.04.45c-.68.33-1.36.67-2,1.05-.33.19-.66.37-.97.58-.32.21-.64.4-.95.62l-.92.66c-.3.22-.59.47-.89.71-1.16.98-2.23,2.08-3.13,3.33-.89,1.25-1.62,2.64-2.05,4.13l-.16.56-.12.57c-.04.19-.08.38-.1.57-.03.19-.06.38-.08.57-.08.77-.1,1.54-.06,2.31.1,1.53.43,3.04.98,4.46.14.36.29.71.45,1.06.08.17.17.35.27.52l.08.14.07.12.14.23,1.13,1.86c1.51,2.48,3.02,4.96,4.52,7.43.29.47.58.95.86,1.42-.93-.24-1.92-.49-2.96-.75-1.53-.4-3.14-.81-4.7-1.22-1.56-.4-3.06-.78-4.38-1.11-.17-.04-.33-.08-.49-.12-.08-.02-.17-.04-.25-.06-.1-.02-.18-.03-.26-.05-.33-.06-.65-.09-.94-.11-.6-.05-1.12-.05-1.57-.03.9,0,1.78.06,2.69.24l2.53.64-1.89-.45-.47-.12c-.18-.05-.35-.07-.51-.1-.34-.05-.67-.09-1-.12-.67-.05-1.34-.06-2.01-.03-.67.03-1.34.1-2,.22-1.32.23-2.61.66-3.82,1.27-1.2.61-2.3,1.43-3.25,2.38.02.02.04.04-.1.21-.15.17-.44.5-.99,1.2.56-.69,1.22-1.45,2.04-2.12.81-.68,1.75-1.29,2.76-1.77,1.01-.48,2.08-.82,3.11-1.03,1.04-.21,2.04-.28,2.92-.28v.1c-.88.01-1.87.1-2.9.3-1.03.21-2.09.54-3.09,1.01-1,.47-1.94,1.07-2.75,1.74-.82.66-1.48,1.41-2.02,2.1.03.02.08.06.1.08,0,0-.05.1-.17.25-.11.16-.28.37-.45.65-.1.15-.2.31-.31.48.12-.19.25-.38.37-.57.18-.27.38-.52.58-.78.4-.51.84-1,1.28-1.42.21-.22.43-.39.63-.57.2-.18.4-.32.57-.46.02.02.05.06.07.09-2.42,1.83-4.64,4.87-5.91,9.89-3.86,15.31,8.94,18.35,8.94,18.35l3.09.74c1.95.55,8.22,1.98,9.82,2.42.63.16,1.04.26,1.29.33-.01,0-.02.01-.04.02-1.25-.27-6.24-1.44-9.66-2.25.83.23,0,.03-1.06-.22-.52-.12-1.1-.26-1.55-.36-.45-.1-.76-.17-.77-.15-.02.06-.03.12.79.38.82.26,2.49.71,5.84,1.56,1.67.43-.03.12-.05.19,1.87.44,3.77.89,5.67,1.34-.4.25-.81.49-1.21.74-2.51,1.53-5.03,3.05-7.54,4.58l-1.89,1.15-.94.57-.47.29c-.15.09-.35.21-.51.32-1.29.91-2.39,1.99-3.34,3.23-.47.62-.9,1.27-1.27,1.95-.36.69-.68,1.4-.92,2.15-.49,1.48-.7,3.05-.66,4.6.05,1.55.36,3.07.84,4.52.47,1.45,1.13,2.82,1.88,4.12.19.33.37.65.58.97.21.31.4.63.62.94l.67.91c.23.3.48.59.71.88.98,1.15,2.1,2.21,3.36,3.09.31.23.65.42.97.62.16.1.34.19.51.28l.52.27c.71.32,1.43.61,2.18.8,1.5.42,3.07.54,4.61.42,1.54-.12,3.05-.49,4.49-1.06.36-.15.71-.3,1.06-.47.18-.09.34-.17.54-.29l.47-.29,1.88-1.14c2.51-1.52,5.01-3.05,7.51-4.57.55-.33,1.1-.67,1.64-1-.05.19-.1.39-.15.58-.71,2.84-1.43,5.67-2.14,8.51l-.53,2.13-.27,1.06-.13.53-.03.13-.04.16c-.02.1-.04.2-.06.3-.26,1.54-.28,3.08-.07,4.61.11.76.27,1.52.5,2.26.23.74.53,1.46.88,2.15.72,1.37,1.69,2.62,2.83,3.66,1.15,1.04,2.45,1.87,3.82,2.54.35.16.69.33,1.04.47l1.06.41,1.08.35.27.09.27.07.55.14c1.46.37,2.94.66,4.46.77,1.51.11,3.05.07,4.57-.21,3.04-.51,5.94-2.12,7.96-4.47,1.02-1.16,1.84-2.48,2.47-3.88.15-.35.3-.71.43-1.07.06-.18.12-.37.18-.57l.14-.55.53-2.12c.71-2.83,1.42-5.66,2.12-8.48.16-.64.32-1.27.48-1.91.9,1.48,1.79,2.95,2.69,4.43l2.62,4.31,1.31,2.16.34.56c.13.2.26.38.4.56.27.36.55.7.85,1.03,1.2,1.31,2.62,2.42,4.21,3.23.8.41,1.64.73,2.51.96.43.13.87.2,1.31.29.45.06.89.13,1.34.14,1.79.12,3.59-.14,5.28-.64,1.7-.5,3.3-1.23,4.82-2.1,1.51-.87,2.96-1.85,4.27-3.02,1.31-1.17,2.49-2.52,3.4-4.06.9-1.54,1.52-3.26,1.74-5.04.23-1.77.1-3.58-.34-5.29-.22-.86-.5-1.69-.87-2.5-.09-.2-.19-.4-.29-.6-.05-.1-.11-.2-.17-.31l-.17-.28-.65-1.08c-.87-1.43-1.75-2.87-2.62-4.3-1.16-1.9-2.31-3.8-3.47-5.71,1.67.4,3.34.79,5.02,1.19l4.94,1.17,2.47.59.62.15c.26.06.46.09.69.12.45.06.89.1,1.34.12,1.78.08,3.58-.14,5.3-.67.86-.27,1.69-.63,2.48-1.07.19-.11.4-.21.58-.34l.57-.37c.19-.13.36-.27.54-.4.09-.07.18-.13.27-.21l.26-.22c.7-.58,1.3-1.25,1.87-1.93l.4-.53.2-.27.18-.28.36-.56c.12-.19.22-.38.33-.58.87-1.54,1.51-3.19,1.98-4.87.47-1.67.81-3.39.92-5.15.11-1.75-.01-3.54-.46-5.27-.46-1.72-1.26-3.37-2.37-4.77-1.11-1.4-2.5-2.57-4.04-3.45-.77-.44-1.57-.82-2.41-1.13-.21-.08-.42-.15-.64-.21-.11-.03-.23-.07-.35-.09l-.31-.07-1.23-.29c-1.64-.39-3.29-.78-4.93-1.17-2.16-.51-4.32-1.02-6.48-1.53,1.46-.89,2.92-1.77,4.38-2.66l4.36-2.65,2.18-1.33.55-.33c.22-.13.4-.26.59-.4.37-.27.71-.55,1.05-.85,1.34-1.19,2.48-2.6,3.34-4.19.84-1.59,1.39-3.36,1.52-5.15.09-.9.04-1.8-.03-2.69l-.09-.66-.05-.33-.07-.33-.14-.65c-.05-.22-.12-.43-.17-.64-.48-1.7-1.21-3.31-2.07-4.82-.86-1.51-1.85-2.95-3.03-4.26ZM139.8,63.22c.31-1.13.47-2.29.44-3.44,0-.29-.04-.57-.06-.85l-.07-.42-.03-.21-.05-.2c-.12-.55-.31-1.08-.55-1.58-.96-2.01-2.89-3.51-4.98-4.32-.11-.05-.18-.08-.18-.1-.03-.03,0-.04.03-.06.08-.03.28-.02.48,0-.13-.02-.1-.11-.23-.12.03-.09.34-.16.85.04-.12-.06-.25-.11-.38-.16-.11-.08.04-.09.06-.15.13.05.26.11.27.08.01-.03.04-.09.05-.12-.13-.06-.39-.16-.52-.21.13.05.26.1.28.07.01-.03.04-.09.05-.12.28.08.64.31.91.42l.04-.08c-.24-.17-.65-.32-.92-.42.15.03.16,0,.18-.06.42.14.77.42,1.19.55-.13-.07-.25-.14-.38-.21.34-.01.91.47,1.29.7.63.38,1.25.91,1.79,1.53.54.62.99,1.32,1.36,1.97.46.78.77,1.7.92,2.63.15.93.15,1.88.06,2.76-.06,0-.14-.16-.19-.02-.17.57-.3.55-.42.53-.06,0,.06-.42-.03-.29.01-.11.03-.23.04-.35,0-.12,0-.23,0-.32,0-.18-.02-.25-.07-.04-.04.07-.04.24-.07.42-.03.17-.06.35-.12.41-.11.12-.17-.16-.28-.04,0,.07-.02.17-.04.27-.02.1-.04.2-.05.27-.09.12-.16-.17-.19-.03-.07.19-.12.42-.18.67-.06.25-.13.51-.19.77-.06-.02-.16.09-.12-.17ZM92.18,159.17c.06.03.05.32-.12.81.05-.12.1-.24.15-.36.07-.11.06.03.1.04-.05.12-.1.24-.08.25.02,0,.06.03.08.03.05-.12.15-.36.2-.47-.05.12-.1.24-.08.24.02,0,.06.03.08.04-.08.24-.26.58-.32.83l.06.02c.1-.23.22-.6.32-.83-.03.13,0,.13.04.15-.12.36-.32.69-.37,1.07.04-.12.08-.24.12-.36.02.27-.25.84-.31,1.22-.11.61-.23,1.28-.27,1.96-.04.68,0,1.36.16,1.95.19.7.47,1.39.88,2.01.4.62.91,1.17,1.48,1.61-.03.04-.16.01-.09.11.35.35.31.42.25.49-.03.04-.31-.22-.24-.11-.3-.23-.8-.63-.54-.35.07.12.49.41.57.53.07.13-.19.04-.12.17.11.07.32.23.44.3.09.11-.19.05-.07.12.16.12.36.25.58.37.23.11.47.22.71.34-.02.04.08.14-.17.04-1.07-.49-2.11-1.14-2.95-2.05-.42-.45-.78-.96-1.07-1.51-.3-.55-.5-1.14-.64-1.74-.28-1.21-.25-2.45-.05-3.63.2-1.19.57-2.32,1.09-3.4.07-.12.11-.19.14-.22.02-.02.04,0,.03.05-.01.1-.06.3-.11.49.03-.13.1-.1.13-.24ZM75.47,121.91c-1.93,1.34-3.88,2.7-5.85,4.04-1.97,1.34-3.93,2.67-5.97,3.89-.48.27-.17-.03.14-.3-.1.09-.14.03-.24.12-.04-.06.14-.29.58-.6l-.34.22c-.13.05-.04-.06-.06-.1.11-.07.23-.14.21-.16-.01-.02-.04-.06-.05-.08-.11.07-.34.21-.45.28.11-.07.23-.14.22-.16-.01-.02-.04-.06-.05-.08.21-.16.58-.34.79-.5l-.04-.06c-.24.13-.56.36-.79.5.1-.09.09-.11.06-.15.33-.23.7-.39,1-.67l-.34.22c.16-.24.77-.53,1.1-.77,1.07-.79,2.47-1.6,3.55-2.4,1.28-.97,2.73-1.94,4.06-2.84.03.04-.05.17.08.11.48-.24.53-.17.58-.09.03.04-.33.23-.2.19-.33.23-.88.62-.52.43.14-.04.55-.38.7-.39.15-.02-.03.19.11.17.11-.08.33-.23.44-.3.14-.04-.03.19.08.11.36-.19.79-.51,1.23-.81.03.04.16,0-.05.17ZM79.01,78.36l-.53-.91c-.18-.3-.33-.62-.49-.94l-.47-.95-.41-.98-.2-.49c-.06-.17-.11-.34-.17-.51-.11-.34-.23-.68-.33-1.02l-.26-1.04c-.3-1.4-.44-2.85-.32-4.3.12-1.45.5-2.88,1.14-4.19.64-1.31,1.5-2.51,2.53-3.51.51-.51,1.06-.97,1.63-1.4.57-.43,1.18-.81,1.81-1.15.29-.15.46-.22.56-.25.07-.02.06,0-.04.07-.18.12-.6.38-.99.66.27-.18.3-.13.57-.3.02.03-.11.14-.36.34-.28.21-.65.49-1.15.86.13-.1.26-.18.39-.27.13-.09.26-.18.4-.26.28-.15.04.06.06.1-.27.17-.52.35-.51.37.01.02.04.06.05.07.25-.18.78-.52,1.05-.67-.27.15-.53.32-.52.34.01.02.04.06.05.08-.51.35-1.29.87-1.74,1.3l.04.05c.48-.39,1.2-.96,1.73-1.29-.25.18-.23.21-.21.24-.75.53-1.51,1.06-2.12,1.76.11-.11.21-.22.33-.32l.34-.31c-.09.12-.24.27-.41.44-.16.18-.37.36-.56.57-.39.41-.79.87-1.04,1.25-.1.16-.21.32-.31.48-.1.17-.19.34-.29.51-.05.08-.1.17-.15.26-.04.09-.09.18-.13.27-.08.18-.18.36-.26.54-.07.19-.15.38-.22.57-.04.1-.08.19-.11.29l-.09.3c-.06.2-.12.39-.18.59l-.13.61-.06.3c-.01.1-.02.21-.04.31-.02.21-.05.41-.07.62-.03.2-.01.41-.02.62,0,.21,0,.41-.01.61.03.41.05.81.1,1.2.07.39.13.77.2,1.15.4,1.78,1.11,3.56,2,5.25l.16.32c.05.11.12.21.18.31l.36.62c.12.21.24.41.36.62.12.2.26.4.39.6.26.4.52.79.78,1.19.28.38.55.76.82,1.13-.04.03-.27-.18-.11.08.17.26.29.46.38.61.09.15.15.25.18.32.06.15.03.18,0,.2-.02.01-.16-.17-.29-.32-.12-.15-.21-.28-.14-.14-.55-.75-1.48-2-.97-1.22.15.28.91,1.27,1.05,1.55.14.29-.3-.16-.16.13.2.24.59.73.79.98.16.27-.3-.16-.11.09.14.19.29.39.46.61.17.21.36.42.55.65.39.44.81.91,1.22,1.38-.03.03.14.3-.29-.16-.46-.52-.91-1.03-1.37-1.55-.45-.53-.88-1.07-1.32-1.61-.86-1.09-1.68-2.22-2.43-3.4l-.29-.44c-.09-.15-.18-.3-.27-.45ZM63.04,87.36c-.21.07-.43.12-.63.21l-.62.25c-.8.37-1.59.79-2.28,1.34-.69.55-1.34,1.16-1.89,1.86-.55.7-1.03,1.45-1.44,2.25-.81,1.6-1.34,3.34-1.67,5.12-.16.89-.28,1.78-.34,2.68-.06.89-.09,1.8-.03,2.66,0,.05,0,.1,0,.14.02,0,.02,0,0,0,0,.02,0,.05,0,.07,0,.01,0,.02,0,.03,0,0,0,0,0,0,0,0,0-.01,0-.02,0,0,0-.01-.01-.02-.02,0-.03.01-.05.02h0s0,.02,0,.03c0,0,0,.01,0,.01h0s0-.03-.01-.04c-.04.01-.07.02-.11.04-.02,0-.04.02-.06.03-.03.01-.06.02-.08.04-.1.06-.18.1-.15.08h0s0,0,0,0h0s0,0,0,0h.01s0,0,0,0h0s0,0,0,0h.01s0,0,0,0h0s.04-.03.07-.04c0,0,.01,0,.02,0,0,0,.02,0,.03-.01,0,0,0,0,0,0,.1-.06.17-.09.21-.12-.02-.04-.03-.09-.04-.15-.03-.12-.06-.27-.08-.42.03.2-.04.21,0,.4-.07.01-.22-.39-.25-1.22,0,.21,0,.42,0,.62-.02.21-.07,0-.11,0,0-.21,0-.42-.03-.42-.02,0-.07,0-.09,0,0,.21,0,.63.03.84-.01-.21-.02-.42-.04-.42-.02,0-.07,0-.09,0-.04-.42.01-1.06.01-1.48h-.07c-.04.42-.03,1.06-.01,1.48-.03-.21-.05-.21-.1-.21-.03-.64.05-1.27.03-1.91-.01.21-.03.42-.03.64-.1-.43.07-1.49.13-2.12.1-1.05.32-2.21.65-3.34.32-1.13.75-2.24,1.21-3.22.54-1.18,1.27-2.35,2.21-3.35.93-1.01,2.06-1.85,3.24-2.44.02.04-.14.2.06.12.81-.34.85-.21.88-.14,0,.02-.14.08-.26.13-.12.06-.21.11-.11.08-.14.07-.31.16-.47.24-.08.04-.16.08-.23.12-.07.04-.13.09-.19.12-.22.15-.3.22-.02.07.05-.02.13-.06.23-.12.1-.05.22-.11.34-.16.24-.11.47-.23.58-.24.22-.02-.14.21.08.19.19-.08.58-.23.77-.3.21-.03-.14.2.05.13.29-.09.64-.17,1-.29.37-.1.77-.18,1.17-.27.01.05.21.05-.18.15-.43.1-.87.18-1.29.33ZM143.62,168.93c-.55.19-1.14.31-1.73.36-.59.05-1.2.04-1.79-.07-1.19-.21-2.3-.74-3.24-1.45-.94-.71-1.73-1.57-2.38-2.52-.16-.24-.32-.48-.47-.74l-.2-.36-.2-.35-.8-1.42c-2.13-3.78-4.24-7.56-6.27-11.32-.45-.87.02-.29.46.3-.15-.2-.06-.24-.21-.44.08-.05.46.3.96,1.14l-.36-.64c-.09-.23.08-.05.14-.08.12.21.24.43.27.41.03-.02.08-.05.11-.06-.12-.21-.36-.64-.47-.85.12.21.24.43.26.41.03-.02.08-.05.11-.06.26.41.56,1.08.83,1.49l.08-.05c-.21-.44-.59-1.07-.83-1.49.15.2.17.18.23.15.38.62.65,1.31,1.09,1.91l-.36-.64c.38.35.86,1.48,1.24,2.1,1.27,2.06,2.58,4.71,3.85,6.8.38.62.77,1.27,1.15,1.92l.07.12.08.14c.04.07.08.14.13.22.09.15.19.3.29.44.2.29.42.58.65.85.91,1.09,2.04,1.97,3.26,2.39-.02.06-.26.07-.06.18.41.18.62.27.72.36.1.08.09.14.08.2-.01.08-.69-.15-.48-.04-.34-.09-.8-.24-1.07-.36-.14-.05-.24-.09-.26-.09-.02,0,.02.05.18.13.05.04.14.09.26.15.12.05.26.11.4.16.14.05.29.09.41.14.12.04.22.07.28.11.22.15-.29.13-.06.28.25.06.76.13,1.02.14.26.08-.27.17-.01.19.79.12,1.87-.06,2.85-.41.01.03.08.04.09.07.01.03-.04.07-.29.16ZM145.47,101.79c5.86,15.95-2.46,33.76-18.58,39.77-16.12,6.01-33.94-2.05-39.8-18-5.86-15.95,2.46-33.76,18.58-39.77,16.12-6.01,33.94,2.05,39.8,18ZM174.72,129.89c.53-.82,1.01-1.7,1.41-2.62.39-.92.71-1.88.91-2.82.06.01.12.19.19.04.22-.62.34-.6.47-.58.06.01-.09.49,0,.34-.04.25-.12.57-.15.78-.03.21-.03.3.06.06.05-.07.1-.28.15-.48.05-.2.09-.41.16-.49.12-.15.16.2.28.05.03-.17.1-.51.12-.68.08-.16.17.2.19.03.06-.25.11-.56.15-.88.02-.33.04-.67.06-1.02.06,0,.14-.17.15.18-.06,1.53-.31,3.08-.77,4.58-.48,1.49-1.18,2.94-2.11,4.23-.46.64-.97,1.26-1.52,1.82-.56.56-1.15,1.09-1.78,1.56-1.26.95-2.63,1.72-4.12,2.27-.18.06-.28.08-.34.08-.04,0-.04-.03.02-.07.1-.08.34-.23.57-.37-.15.1-.19,0-.34.1-.03-.09.25-.35.86-.67-.16.07-.31.14-.47.21-.17.04-.04-.09-.06-.15.16-.07.31-.14.3-.17-.01-.03-.04-.09-.05-.12-.15.07-.46.2-.62.26.16-.06.31-.13.3-.16-.01-.03-.04-.09-.05-.12.29-.16.77-.31,1.05-.5l-.04-.08c-.31.13-.74.37-1.05.49.14-.09.13-.12.1-.18.43-.23.92-.36,1.31-.69l-.43.23c.22-.29.99-.58,1.38-.89.65-.49,1.37-1.03,2.03-1.63.66-.61,1.27-1.28,1.72-1.96ZM172,80.21c.46.78.77,1.7.92,2.63.15.93.15,1.88.06,2.76-.06,0-.14-.16-.19-.02-.17.57-.3.55-.42.53-.06,0,.06-.42-.03-.29.01-.11.03-.23.04-.35,0-.12,0-.23,0-.32,0-.18-.02-.25-.07-.04-.04.07-.04.24-.07.42-.03.17-.06.35-.12.41-.11.12-.17-.16-.28-.04,0,.07-.02.17-.04.27-.02.1-.04.2-.05.27-.09.12-.16-.17-.19-.03-.07.19-.12.42-.18.67-.06.25-.13.51-.19.77-.06-.02-.16.09-.12-.17.31-1.13.47-2.29.44-3.44,0-.29-.04-.57-.06-.85l-.07-.42-.03-.21-.05-.2c-.12-.55-.31-1.08-.55-1.58-.96-2.01-2.89-3.51-4.98-4.32-.11-.05-.18-.08-.18-.1-.03-.03,0-.04.03-.06.08-.03.28-.02.48.01-.13-.02-.1-.11-.23-.12.03-.09.34-.16.85.04-.12-.06-.25-.11-.38-.16-.11-.08.04-.09.06-.15.13.05.26.11.27.08.01-.03.04-.09.05-.12-.13-.06-.39-.16-.52-.21.13.05.26.1.28.07.01-.03.04-.09.05-.12.28.08.64.31.91.42l.04-.08c-.24-.17-.65-.32-.92-.42.15.03.16,0,.18-.06.42.14.77.42,1.19.55-.13-.07-.25-.14-.38-.21.34-.01.91.47,1.29.7.63.38,1.25.91,1.79,1.53.54.62.99,1.32,1.36,1.97Z"/>
      <g>
        <path class="cls-5" d="M115.78,114.79c.54.2,1.13.34,1.76.33.31,0,.63-.05.94-.13.3-.09.61-.2.88-.36.56-.31,1.01-.76,1.36-1.24.34-.49.59-1.01.78-1.54.37-1.06.5-2.14.51-3.2.01-2.13-.44-4.19-1.18-6.13-.75-1.94-1.78-3.78-3.23-5.34-.72-.77-1.56-1.48-2.56-1.98-.5-.25-1.05-.45-1.65-.53-.3-.05-.6-.05-.91-.03-.31.03-.62.08-.91.19-.59.2-1.12.57-1.54,1-.41.44-.72.94-.95,1.45-.45,1.03-.64,2.1-.7,3.15-.11,2.1.28,4.15.94,6.08.17.44.23.53.26.52.03,0,.02-.13.05-.14-.64-1.73-1.03-3.57-1.03-4.97-.02-.46.15.45.19-.01-.03-.46-.02-1.38.03-1.84.14-.45.15.47.29.03,0-.02,0-.04.01-.06-.19,1.94.12,4.29.99,6.67.37,1,.8,1.92,1.29,2.76,0,0,0,0,0,0-.03.02-.26-.37-.46-.78-.06.03-.32-.35-.14.07.2.41.43.8.67,1.19-.49-.77-.83-1.36-1.07-1.75-.24-.39-.39-.58-.43-.56.21.41.12.45.35.86-.34-.6-.65-1.23-.8-1.49-.14-.25-.16-.13.18.74.39.95.86,1.87,1.41,2.74.56.87,1.2,1.71,1.96,2.45.76.74,1.64,1.41,2.72,1.83Z"/>
        <path class="cls-5" d="M102.01,119.92c.54.2,1.13.34,1.76.33.31,0,.63-.05.94-.13.3-.09.61-.2.88-.36.56-.31,1.01-.76,1.36-1.24.34-.49.59-1.01.78-1.54.37-1.06.5-2.14.51-3.2.01-2.13-.44-4.19-1.18-6.13-.75-1.94-1.78-3.78-3.23-5.34-.72-.77-1.56-1.48-2.56-1.98-.5-.25-1.05-.45-1.65-.53-.3-.05-.6-.05-.91-.03-.31.03-.62.08-.91.19-.59.2-1.12.57-1.54,1-.41.44-.72.94-.95,1.45-.45,1.03-.64,2.1-.7,3.15-.11,2.1.28,4.15.94,6.08.17.44.23.53.26.52.03,0,.02-.13.05-.14-.64-1.73-1.03-3.57-1.03-4.97-.02-.46.15.45.19-.01-.03-.46-.02-1.38.03-1.84.14-.45.15.47.29.03,0-.02,0-.04.01-.06-.19,1.94.12,4.29.99,6.67.37,1,.8,1.92,1.29,2.76,0,0,0,0,0,0-.03.02-.26-.37-.46-.78-.06.03-.32-.35-.14.07.2.41.43.8.67,1.19-.49-.77-.83-1.36-1.07-1.75-.24-.39-.39-.58-.43-.56.21.41.12.45.35.86-.34-.6-.65-1.23-.8-1.49-.14-.25-.16-.13.18.74.39.95.86,1.87,1.41,2.74.56.87,1.2,1.71,1.96,2.45.76.74,1.64,1.41,2.72,1.83Z"/>
        <path class="cls-5" d="M134.77,116.21c-.29.29-.55.6-.83.75-.08.07,0-.16-.13-.14-.08.07-.22.2-.31.26-.14-.01-.04-.21-.18-.22-.14-.02-.41.28-.52.28-.14.05-.11,0-.02-.07.09-.08.23-.21.35-.3-.12,0,.15-.11.11-.17-.08-.1-.16-.19-.51-.04-.09.03-.08-.1-.12-.15-.42.32-.88.61-1.34.77-.46.16-.89.21-1.32.13-.36-.08-.72-.34-1.02-.69-.3-.35-.55-.76-.8-1.14-.15-.23-.21-.69-.43-.81.03.09.07.17.1.26-.2-.22-.2-.52-.31-.77-.06.02-.09.03-.15-.05.05.18.17.44.21.62l-.09.03c-.1-.17-.13-.46-.21-.63-.03,0-.09.03-.12.04-.03,0-.06-.08-.08-.18.02.09.08.28.11.37-.03,0-.09.03-.12.04-.03,0-.06-.08-.09-.18-.06.02-.15-.06-.15.05l.09.28c-.16-.37-.36-.52-.45-.5.06.09-.03.12.02.21-.18-.26-.38-.59-.3-.13.22.9.55,1.76,1.06,2.59.26.41.56.81.95,1.16.13.12.28.24.44.34,0,.02,0,.04,0,.06-.17,2.64-1.01,5.31-2.57,7.46-1.55,2.16-3.86,3.71-6.47,4.49-2.62.83-5.4,1.16-8.1.82-1.35-.17-2.67-.49-3.93-.98-.63-.25-1.23-.53-1.8-.86-.28-.17-.56-.34-.82-.53-.25-.19-.5-.4-.66-.58-.04-.04-.05-.06-.07-.08,0,0,0,0,0,0h0s0,0,0,0h-.01s-.05-.06-.06-.05c-.01,0-.02.03-.03.05,0,.01,0,.02-.01.03,0,0,0,0,0,.01h0s0,0,0,0h0s-.12.04-.12.04h0c.05-.02.13-.05.19-.07-.03.01-.06.03-.08.04,0,0,.01,0,.02,0h0s0,0,0,.01l.04.06s.08.09.12.14c.09.1.2.19.31.28.22.18.46.35.69.51.47.31.94.58,1.35.8.28.14-.33-.02-.08.17.28.14.86.39,1.15.49.26.2-.37.07-.1.27.13.1.51.25.89.37.19.06.38.12.55.17.16.05.3.09.37.13.93.29-.66-.03-1.57-.38.28.17-.61-.22-.63-.17-.02.06-.05.12.08.24.13.11.42.29,1.03.54.31.13-.04.12-.06.18,1.92.6,4.02.89,6.11.81,2.09-.07,4.14-.52,6.01-1.18.78-.3,1.61-.62,2.4-1.05.8-.43,1.58-.94,2.3-1.53,1.45-1.18,2.59-2.71,3.28-4.21.22-.45.51-1.05.73-1.64.12-.29.2-.58.27-.84.06-.26.11-.48.11-.65-.08.32-.17.64-.28.95.22-.97.53-1.91.63-2.9-.06,0-.09-.01-.09-.34-.07.65-.22,1.63-.42,2.25l-.09-.02c.14-.64.38-1.59.42-2.24-.03,0-.1-.01-.13-.01-.02,0,0-.19.01-.43-.03.34-.09.81-.13,1.06-.03,0-.09-.01-.13-.02-.03,0,.02-.32.06-.64-.06,0-.09-.33-.16-.02-.04.31-.08.63-.14.94.09-.63.09-1.1.06-1.42-.01-.15-.03-.25-.06-.33.16.09.33.16.51.22,0,.07-.01.14-.02.2,0-.08.01-.15.02-.2.04.01.07.03.11.04.55.17,1.14.17,1.67.05.52-.12,1-.32,1.42-.58.22-.12.4-.27.61-.4.19-.15.37-.29.55-.44.17-.16.34-.31.51-.47.16-.16.31-.32.47-.49.12-.17,0-.14-.04-.18ZM128.81,118.92c0-.2,0-.39-.02-.57.03.02.07.04.1.05,0,.21-.08.24-.08.51Z"/>
        <path class="cls-5" d="M103.93,128.13h0s0,0,0,0h.01s.03-.01.03-.01c0,0,0,0,.01,0-.02,0-.04.01-.06.02-.06.02-.08.03,0,0Z"/>
        <polygon class="cls-5" points="104.03 128.09 104.03 128.09 104.02 128.1 104.03 128.09"/>
        <path class="cls-5" d="M104.02,128.1s-.03,0-.04.01c.02,0,.03,0,.04-.01Z"/>
      </g>
      <g>
        <path class="cls-5" d="M182.62,67.76c-.23-.07-.42-.05-.6.09.21.09.41,0,.6-.09Z"/>
        <polygon class="cls-5" points="182.62 67.76 182.62 67.75 182.62 67.76 182.62 67.76"/>
        <path class="cls-5" d="M217.74,68.83c-.05-.07-.1-.16-.15-.24.05.08.1.17.15.24Z"/>
        <path class="cls-5" d="M216.44,66.51h.02c-.34-.81-.83-1.04-1.13-1.77l.08.05c-.08-.27-.45-.69-.64-1.16.05.13.04.29-.12.04-.23-.53-.5-.83-.64-1.24l-.31-.29c-.51-.86-1.82-2.97-3.13-5.07-.66-1.05-1.32-2.1-1.88-3-.14-.22-.27-.44-.4-.64-.07-.12-.14-.23-.21-.34-.11-.18-.22-.35-.32-.52-.4-.66-.74-1.21-.99-1.61l.09.11c-.87-1.41-1.99-3.25-3.23-5.29-.76.47-1.56.97-2.37,1.47-.4.25-.81.5-1.21.76-.2.13-.4.25-.6.38-.1.06-.2.12-.3.19-.05.04-.11.07-.16.11-.83.55-1.6,1.08-2.14,1.52-.35,0-.69.24-.98.36.19-.02.21.12.09.19-.83.47.01.15-.77.71-.86.72-4.6,2.74-5.53,3.11-.31.51-.98.67-1.34,1.09v-.08c-.41.38-3.24,1.78-3.75,2.2h.09c-.39.43-.49.13-.92.28.21.24-.11.64-.26.75l-.03-.06c-.21.19-.61.75-.98,1.02l-.07-.16c-.23.35-.89.66-1.12.82-.58.26-1.56.51-2.16,1.14l-.72-.14-.04.08s2.29,5.49,3.88,6l.07.16.18-.13c.27-.06.27-.3.34-.14l-.32.17c.25-.09.14.08.1.21.1-.04.21-.08.31-.08.01-.08-.07-.04-.12-.05.09-.12.18-.36.37-.39.24-.13.16.23.44.08,1.5-.75,2.99-1.41,4.41-2.31.07.04.03.06,0,.11.4-.33.8-.54,1.16-.84.15,0,.23.07.3.11-.07-.04.46-.4,1.01-.75.28-.18.56-.35.77-.48s.37-.21.38-.21l-.13-.28c.43-.26.31.23.66-.08-.07-.47.68-.36.7-.64.01.03.22-.07.27.05-.06-.24.17-.17.26-.29.01-.08-.07-.04-.14-.08l.24-.24c.15,0,.25.1.14.2.38-.18,1.45-.74,2.53-1.32-.47,1.17-1.03,2.63-1.13,3.15.16.01.15-.29.38-.21.04.3-.14.26-.05.45-.32-.18-.22.38-.57.26l.15.2h-.13c-.13,1.04.02.28-.29,1.02-.13.47.03.89-.14,1.06.01-.04.15-.05.15.11-.15-.11,0,.4-.17.33-.02.13-.17.48.08.53-.12-.02-.27.27-.29,0-.04.11-.11.19-.09.31l.1-.09c-.1.4-.32.47-.23.87l.13-.07c-.06.24-.11.44-.34.35l.02-.28c-.12.38-.19.61-.19,1.01l.04-.11c.06.57-.48,2.78-.36,3.36l.21-.03.02.43s-.36-.49-.39-.57c-.22.71-1.28,4.27-1.6,4.79-.17.18-.26-.17-.28-.19-.05.35.12.27.02.52-.05.05-.11-.12-.12-.18-.02.13-.11.19-.04.26.1-.09.27.13.42.18l-.13.32-.11-.12c-.03.07.26.48.09.75-.24.51-.4,1.14-.62,1.67-.07-.07-.07-.23-.07-.38-.03.07-.05.2-.12.22.17-.02,0,.31.09.25.15.66-.29.95-.22,1.49.25.26,4.25,4.75,4.56,5.03-.04.11-.09.21-.12.22.08.04.19-.15.19-.3l-.16-.17c.03-.32.12.03.2-.25.14.11.09.37.03.6.08-.18.25-.28.12-.49.12-.13.16.17.29,0,.01-.19-.05-.51.09-.61l.02.02c.29-.3.02-.84.29-1.11l.03.08c.13-.07.11-.44.28-.61-.05.05-.17.02-.14-.14.18-.21.16-.48.34-.6l-.07-.32c.37-.98,1.52-5.1,1.85-6.12v.06c.46-1.59,1.55-4.72,1.9-6.47.22-.13.3-.49.42-.72-.1.09-.18-.04-.14-.14.28-.76-.07-.13.14-.97.19-1.01,1.51-4.36,1.9-5.06-.05-.6.28-1.01.31-1.55l.03.08c.08-.52,1.14-2.93,1.25-3.52l-.05.05c.04-.57.23-.32.42-.62-.23-.15-.22-.65-.19-.81l.05.05c.04-.26.03-.94.13-1.34l.11.12c0-.12,0-.25.04-.37.39.64.84,1.36,1.28,2.08,1.08,1.76,2.14,3.52,2.43,4.08.19.47-.14.19-.16.19.36.5.26.15.51.6.05.13-.1.03-.16-.03.13.19.2.39.26.37-.1-.27.1-.25.13-.41l.33.58-.1.03c.07.13.44.18.73.76.53.97,1.18,1.98,1.73,2.94-.06.02-.21-.16-.37-.34.07.13.2.32.24.46-.04-.29.3.36.24.16.64.56.98,1.59,1.5,2.11.23-.06,4.18-.72,4.41-.86.11.19.22.39.24.46.03-.08-.17-.47-.33-.65l-.15.04c-.32-.43,0-.15-.27-.6.09-.09.36.31.59.67-.18-.33-.31-.7-.5-.77-.14-.33.15-.04-.03-.44-.19-.25-.5-.53-.62-.87Z"/>
        <path class="cls-5" d="M195.08,87.07s-.04.09-.04.15c.01-.05.03-.1.04-.15Z"/>
        <path class="cls-5" d="M193.09,72.35s0,0,0-.01c0,0,0,0,0,.01Z"/>
      </g>
      <g>
        <path class="cls-5" d="M47.39,159.24c.23.07.42.05.6-.09-.21-.09-.41,0-.6.09Z"/>
        <polygon class="cls-5" points="47.38 159.24 47.38 159.25 47.39 159.24 47.38 159.24"/>
        <path class="cls-5" d="M12.27,158.17c.05.07.1.16.15.24-.05-.08-.1-.17-.15-.24Z"/>
        <path class="cls-5" d="M13.57,160.49h-.02c.34.81.83,1.04,1.13,1.77l-.08-.05c.08.27.45.69.64,1.16-.05-.13-.04-.29.12-.04.23.53.5.83.64,1.24l.31.29c.51.86,1.82,2.97,3.13,5.07.66,1.05,1.32,2.1,1.88,3,.14.22.27.44.4.64.07.12.14.23.21.34.11.18.22.35.32.52.4.66.74,1.21.99,1.61l-.09-.11c.87,1.41,1.99,3.25,3.23,5.29.76-.47,1.56-.97,2.37-1.47.4-.25.81-.5,1.21-.76.2-.13.4-.25.6-.38.1-.06.2-.12.3-.19.05-.04.11-.07.16-.11.83-.55,1.6-1.08,2.14-1.52.35,0,.69-.24.98-.36-.19.02-.21-.12-.09-.19.83-.47-.01-.15.77-.71.86-.72,4.6-2.74,5.53-3.11.31-.51.98-.67,1.34-1.09v.08c.41-.38,3.24-1.78,3.75-2.2h-.09c.39-.43.49-.13.92-.28-.21-.24.11-.64.26-.75l.03.06c.21-.19.61-.75.98-1.02l.07.16c.23-.35.89-.66,1.12-.82.58-.26,1.56-.51,2.16-1.14l.72.14.04-.08s-2.29-5.49-3.88-6l-.07-.16-.18.13c-.27.06-.27.3-.34.14l.32-.17c-.25.09-.14-.08-.1-.21-.1.04-.21.08-.31.08-.01.08.07.04.12.05-.09.12-.18.36-.37.39-.24.13-.16-.23-.44-.08-1.5.75-2.99,1.41-4.41,2.31-.07-.04-.03-.06,0-.11-.4.33-.8.54-1.16.84-.15,0-.23-.07-.3-.11.07.04-.46.4-1.01.75-.28.18-.56.35-.77.48s-.37.21-.38.21l.13.28c-.43.26-.31-.23-.66.08.07.47-.68.36-.7.64-.01-.03-.22.07-.27-.05.06.24-.17.17-.26.29-.01.08.07.04.14.08l-.24.24c-.15,0-.25-.1-.14-.2-.38.18-1.45.74-2.53,1.32.47-1.17,1.03-2.63,1.13-3.15-.16-.01-.15.29-.38.21-.04-.3.14-.26.05-.45.32.18.22-.38.57-.26l-.15-.2h.13c.13-1.04-.02-.28.29-1.02.13-.47-.03-.89.14-1.06-.01.04-.15.05-.15-.11.15.11,0-.4.17-.33.02-.13.17-.48-.08-.53.12.02.27-.27.29,0,.04-.11.11-.19.09-.31l-.1.09c.1-.4.32-.47.23-.87l-.13.07c.06-.24.11-.44.34-.35l-.02.28c.12-.38.19-.61.19-1.01l-.04.11c-.06-.57.48-2.78.36-3.36l-.21.03-.02-.43s.36.49.39.57c.22-.71,1.28-4.27,1.6-4.79.17-.18.26.17.28.19.05-.35-.12-.27-.02-.52.05-.05.11.12.12.18.02-.13.11-.19.04-.26-.1.09-.27-.13-.42-.18l.13-.32.11.12c.03-.07-.26-.48-.09-.75.24-.51.4-1.14.62-1.67.07.07.07.23.07.38.03-.07.05-.2.12-.22-.17.02,0-.31-.09-.25-.15-.66.29-.95.22-1.49-.25-.26-4.25-4.75-4.56-5.03.04-.11.09-.21.12-.22-.08-.04-.19.15-.19.3l.16.17c-.03.32-.12-.03-.2.25-.14-.11-.09-.37-.03-.6-.08.18-.25.28-.12.49-.12.13-.16-.17-.29,0-.01.19.05.51-.09.61l-.02-.02c-.29.3-.02.84-.29,1.11l-.03-.08c-.13.07-.11.44-.28.61.05-.05.17-.02.14.14-.18.21-.16.48-.34.6l.07.32c-.37.98-1.52,5.1-1.85,6.12v-.06c-.46,1.59-1.55,4.72-1.9,6.47-.22.13-.3.49-.42.72.1-.09.18.04.14.14-.28.76.07.13-.14.97-.19,1.01-1.51,4.36-1.9,5.06.05.6-.28,1.01-.31,1.55l-.03-.08c-.08.52-1.14,2.93-1.25,3.52l.05-.05c-.04.57-.23.32-.42.62.23.15.22.65.19.81l-.05-.05c-.04.26-.03.94-.13,1.34l-.11-.12c0,.12,0,.25-.04.37-.39-.64-.84-1.36-1.28-2.08-1.08-1.76-2.14-3.52-2.43-4.08-.19-.47.14-.19.16-.19-.36-.5-.26-.15-.51-.6-.05-.13.1-.03.16.03-.13-.19-.2-.39-.26-.37.1.27-.1.25-.13.41l-.33-.58.1-.03c-.07-.13-.44-.18-.73-.76-.53-.97-1.18-1.98-1.73-2.94.06-.02.21.16.37.34-.07-.13-.2-.32-.24-.46.04.29-.3-.36-.24-.16-.64-.56-.98-1.59-1.5-2.11-.23.06-4.18.72-4.41.86-.11-.19-.22-.39-.24-.46-.03.08.17.47.33.65l.15-.04c.32.43,0,.15.27.6-.09.09-.36-.31-.59-.67.18.33.31.7.5.77.14.33-.15.04.03.44.19.25.5.53.62.87Z"/>
        <path class="cls-5" d="M34.92,139.93s.04-.09.04-.15c-.01.05-.03.1-.04.15Z"/>
        <path class="cls-5" d="M36.91,154.64s0,0,0,.01c0,0,0,0,0-.01Z"/>
      </g>
      <g>
        <path class="cls-4" d="M83.48,195.29l3.47,1.29c.82.31,1.4.73,1.73,1.28.33.54.36,1.16.1,1.85-.18.48-.46.83-.84,1.04-.38.21-.82.28-1.33.21v.02c.35.21.58.49.68.83.1.34.12.68.07,1.02-.05.34-.15.74-.28,1.18-.08.28-.13.49-.16.61-.02.13,0,.21.05.25l-.04.1-1.93-.72c-.03-.07-.03-.16,0-.28.03-.12.08-.3.16-.53.12-.37.21-.68.25-.94.04-.26.02-.51-.08-.74s-.31-.42-.64-.54l-1.15-.43-.96,2.57-1.86-.69,2.74-7.37ZM84.11,199.27l1.26.47c.38.14.69.17.93.1.24-.07.42-.26.53-.56.11-.3.1-.56-.03-.78-.14-.22-.39-.39-.77-.53l-1.26-.47-.66,1.77Z"/>
        <path class="cls-4" d="M89.63,205.38c-.48-.49-.78-1.07-.92-1.75s-.1-1.4.1-2.17c.2-.76.53-1.41.98-1.93.45-.52,1.01-.88,1.67-1.07.66-.19,1.38-.18,2.17.03.78.21,1.41.56,1.88,1.05.48.49.78,1.08.92,1.75.14.68.11,1.4-.1,2.17-.21.77-.54,1.42-.99,1.94s-1.01.87-1.67,1.06c-.66.19-1.38.18-2.15-.02-.79-.21-1.42-.56-1.9-1.05ZM93.53,204.58c.41-.36.71-.91.9-1.64.19-.72.2-1.34.03-1.86-.17-.52-.59-.86-1.24-1.03-.65-.17-1.18-.08-1.59.28-.41.36-.71.9-.9,1.63-.19.73-.2,1.35-.03,1.87.17.52.59.86,1.24,1.03s1.18.08,1.59-.28Z"/>
        <path class="cls-4" d="M97.84,199.76l2.39.39.8,5.21h.02s2.4-4.69,2.4-4.69l2.39.39-1.25,7.76-1.85-.3.78-4.83h-.02s-2.22,4.59-2.22,4.59l-1.37-.22-.66-5.07h-.02s-.78,4.83-.78,4.83l-1.85-.3,1.25-7.76Z"/>
        <path class="cls-4" d="M108,207.44l-.62,1.6-1.97-.14,3.41-7.64,1.97.14,2.26,8.05-1.97-.14-.39-1.67-2.69-.2ZM110.36,206.1l-.68-2.96h-.02s-1.1,2.83-1.1,2.83l1.8.13Z"/>
        <path class="cls-4" d="M113.94,201.6h1.98s2.77,4.65,2.77,4.65h.02s-.03-4.67-.03-4.67h1.98s.04,7.85.04,7.85h-1.98s-2.77-4.65-2.77-4.65h-.02s.03,4.67.03,4.67h-1.98s-.04-7.85-.04-7.85Z"/>
        <path class="cls-4" d="M123.61,201.35l.47,7.85-1.98.12-.47-7.85,1.98-.12Z"/>
        <path class="cls-4" d="M127.04,207.32l-.32,1.68-1.97.22,1.96-8.13,1.97-.22,3.69,7.5-1.97.22-.68-1.57-2.68.3ZM129.11,205.57l-1.21-2.79h-.02s-.56,2.99-.56,2.99l1.79-.2Z"/>
        <path class="cls-4" d="M131.82,200.49l1.94-.37,3.58,4.08h.02s-.88-4.6-.88-4.6l1.94-.37,1.47,7.73-1.94.37-3.58-4.08h-.02s.88,4.6.88,4.6l-1.95.37-1.47-7.72Z"/>
        <path class="cls-4" d="M145.85,199.08c-.31-.18-.69-.2-1.17-.06-.6.18-.97.51-1.1,1s-.09,1.12.13,1.88c.22.76.53,1.31.91,1.65.38.34.87.42,1.47.25.48-.14.8-.37.95-.7.16-.32.2-.72.14-1.2l1.9-.56c.19.95.08,1.77-.33,2.48-.41.71-1.11,1.21-2.12,1.51-.77.23-1.49.26-2.14.08-.65-.17-1.21-.51-1.66-1.03-.46-.51-.8-1.15-1.03-1.91-.23-.77-.29-1.49-.18-2.17.1-.68.38-1.26.84-1.76.45-.5,1.07-.86,1.84-1.09,1-.3,1.86-.26,2.59.11.72.37,1.27.99,1.63,1.87l-1.9.56c-.21-.43-.47-.73-.77-.91Z"/>
        <path class="cls-4" d="M156.11,201.16c-.3.66-.99,1.2-2.07,1.62-1.08.42-1.95.49-2.61.21-.66-.28-1.18-.89-1.55-1.82l-1.83-4.68,1.84-.72,1.83,4.68c.18.46.41.76.69.88.28.12.62.11,1.04-.06s.68-.38.8-.66c.12-.28.09-.65-.09-1.11l-1.83-4.68,1.84-.72,1.83,4.68c.37.94.4,1.73.1,2.39Z"/>
        <path class="cls-4" d="M156.67,192.87l2.75,5.61,3.14-1.54.71,1.45-4.92,2.41-3.46-7.06,1.78-.87Z"/>
        <path class="cls-4" d="M161.77,192.04l-1.98,1.15-.81-1.4,5.66-3.28.81,1.4-1.97,1.14,3.13,5.4-1.71.99-3.14-5.4Z"/>
        <path class="cls-4" d="M173.92,190.83c-.13.71-.66,1.4-1.6,2.08-.94.68-1.77.96-2.48.85-.71-.11-1.36-.57-1.95-1.38l-2.93-4.08,1.61-1.15,2.93,4.08c.29.4.59.63.88.68.3.05.63-.05.99-.31.36-.26.57-.54.62-.84s-.07-.65-.37-1.06l-2.93-4.08,1.61-1.15,2.93,4.08c.58.82.81,1.58.69,2.29Z"/>
        <path class="cls-4" d="M170.9,183.97l2.8-2.43c.67-.57,1.31-.87,1.95-.9s1.19.24,1.67.79c.34.39.5.8.51,1.23s-.15.86-.45,1.26v.02c.37-.21.72-.28,1.07-.21.35.07.66.22.93.43.28.21.58.48.9.81.21.21.36.35.46.43s.18.11.24.08l.07.08-1.56,1.35c-.07,0-.16-.05-.25-.13-.1-.08-.23-.21-.39-.39-.26-.28-.5-.51-.7-.67s-.43-.26-.69-.29c-.26-.03-.52.07-.78.3l-.93.81,1.79,2.07-1.5,1.3-5.15-5.95ZM174.7,185.33l1.01-.88c.31-.26.48-.52.54-.77.05-.25-.03-.49-.24-.74-.21-.24-.44-.36-.7-.34-.25.02-.53.16-.84.42l-1.01.88,1.24,1.43Z"/>
        <path class="cls-4" d="M182.16,182.16l.82,1.51-1.38,1.42-3.65-7.52,1.38-1.42,7.62,3.45-1.38,1.42-1.53-.78-1.88,1.93ZM182.65,179.49l-2.7-1.39-.02.02,1.46,2.66,1.26-1.29Z"/>
        <path class="cls-4" d="M182.77,172.32l4.79,4.01,2.25-2.68,1.24,1.04-3.52,4.2-6.03-5.05,1.27-1.52Z"/>
        <path class="cls-4" d="M187.63,166.08l6.35,4.63-1.17,1.6-6.36-4.63,1.17-1.6Z"/>
        <path class="cls-4" d="M188.2,165.35l1.08-1.66,5.42.23v-.02s-3.91-2.54-3.91-2.54l1.08-1.66,6.6,4.27-1.07,1.66-5.42-.23v.02s3.91,2.54,3.91,2.54l-1.08,1.66-6.6-4.27Z"/>
        <path class="cls-4" d="M197.75,156.26c.36-.28.74-.46,1.17-.54.42-.08.86,0,1.32.25.44.24.76.55.97.95.21.39.29.85.25,1.36-.04.51-.22,1.05-.53,1.62-.33.61-.72,1.09-1.17,1.47-.45.37-.93.6-1.45.67-.51.07-1.02-.03-1.52-.3l.94-1.74c.35.19.67.2.98.02.3-.17.57-.47.8-.89.17-.32.25-.59.23-.82s-.11-.4-.29-.5c-.15-.08-.3-.09-.46-.04-.16.06-.32.15-.48.29-.16.14-.38.35-.65.63l-.31.32c-.59.59-1.15,1-1.68,1.22-.53.22-1.09.17-1.67-.14-.72-.39-1.11-.92-1.19-1.6-.08-.68.1-1.41.54-2.21.29-.54.65-.98,1.07-1.32s.87-.55,1.35-.62c.48-.08.95,0,1.42.24l-.94,1.74c-.28-.1-.55-.09-.81.04-.26.13-.48.36-.66.7-.15.28-.23.53-.23.75s.09.38.28.48c.19.1.39.09.6-.04.2-.13.51-.41.91-.83.46-.47.86-.85,1.22-1.12Z"/>
        <path class="cls-4" d="M197.75,151.94l-.95,2.08-1.47-.67,2.71-5.96,1.47.67-.94,2.07,5.68,2.59-.82,1.8-5.69-2.59Z"/>
        <path class="cls-4" d="M198.94,144.98l7.32,2.87-.72,1.84-7.32-2.87.72-1.84Z"/>
        <path class="cls-4" d="M201.4,142.94l-.72,2.17-1.53-.51,2.06-6.21,1.54.51-.72,2.16,5.93,1.97-.62,1.88-5.93-1.97Z"/>
        <path class="cls-4" d="M209.77,134.07c.37.62.41,1.49.14,2.62s-.71,1.88-1.32,2.27c-.61.39-1.4.46-2.38.22l-4.89-1.18.47-1.92,4.88,1.18c.48.12.86.1,1.12-.06.26-.16.44-.45.55-.89.11-.43.08-.78-.08-1.04-.16-.26-.48-.45-.97-.56l-4.89-1.18.47-1.93,4.89,1.18c.98.24,1.65.66,2.02,1.28Z"/>
        <path class="cls-4" d="M204.89,129.16l-.33,2.26-1.6-.24.96-6.47,1.6.24-.33,2.25,6.18.91-.29,1.96-6.18-.91Z"/>
        <path class="cls-4" d="M207.24,119.01l1.61.09-.18,3.43,1.61.09.21-4.04,1.61.09-.32,6.02-7.85-.41.31-5.95,1.61.09-.21,3.98,1.39.07.18-3.43Z"/>
      </g>
      <g>
        <path class="cls-4" d="M18.76,120.13l-.83-5.82c-.2-1.38-.04-2.5.47-3.37.51-.86,1.34-1.38,2.49-1.54.81-.11,1.5.01,2.08.38s1.01.93,1.3,1.69h.04c.02-.67.23-1.19.63-1.59.4-.4.85-.69,1.37-.87.52-.18,1.14-.35,1.86-.5.46-.1.78-.18.97-.24.19-.06.3-.15.32-.26l.17-.02.46,3.23c-.07.09-.2.17-.39.22-.19.06-.48.12-.85.18-.61.11-1.11.23-1.5.36-.39.13-.72.35-.98.67-.26.31-.35.75-.27,1.3l.27,1.93,4.3-.61.44,3.11-12.34,1.75ZM23.82,116.24l-.3-2.11c-.09-.63-.28-1.09-.56-1.37s-.68-.39-1.19-.32c-.51.07-.86.28-1.05.63-.2.35-.25.84-.16,1.48l.3,2.11,2.97-.42Z"/>
        <path class="cls-4" d="M29,104.86c-.56.93-1.33,1.64-2.31,2.12s-2.11.72-3.37.72c-1.26,0-2.37-.24-3.36-.72s-1.75-1.19-2.31-2.12-.84-2.04-.84-3.33.28-2.38.84-3.31c.56-.93,1.33-1.64,2.31-2.13.98-.49,2.1-.73,3.36-.73,1.27,0,2.39.24,3.37.73.98.49,1.75,1.2,2.31,2.13.56.93.84,2.03.84,3.31,0,1.29-.28,2.4-.84,3.33ZM26.19,99.22c-.72-.48-1.68-.71-2.88-.71-1.19,0-2.14.24-2.86.72-.72.48-1.08,1.25-1.08,2.32s.36,1.84,1.08,2.32,1.67.71,2.86.71c1.2,0,2.15-.24,2.88-.71s1.08-1.25,1.08-2.32-.36-1.84-1.08-2.32Z"/>
        <path class="cls-4" d="M17.28,92.66l.6-3.79,8.25-1.3v-.03s-7.45-3.77-7.45-3.77l.6-3.79,12.31,1.94-.46,2.93-7.66-1.21v.04s7.3,3.5,7.3,3.5l-.34,2.17-8.02,1.08v.03s7.66,1.21,7.66,1.21l-.46,2.93-12.31-1.94Z"/>
        <path class="cls-4" d="M30.38,77.17l2.23,1.55-.95,2.99-10.52-8.07.95-2.99,13.24-.52-.95,2.99-2.72-.02-1.29,4.07ZM29.18,73.04l-4.81-.04v.03s3.95,2.74,3.95,2.74l.86-2.73Z"/>
        <path class="cls-4" d="M24.32,64.3l1.37-2.83,8.57-.7.02-.03-6.67-3.22,1.36-2.83,11.22,5.42-1.37,2.83-8.57.7v.03s6.66,3.22,6.66,3.22l-1.37,2.83-11.22-5.42Z"/>
        <path class="cls-4" d="M32.09,49.73l10.6,6.55-1.65,2.67-10.6-6.55,1.65-2.67Z"/>
        <path class="cls-4" d="M43.05,51.15l1.57,2.22-1.91,2.49-7.14-11.17,1.91-2.49,12.63,4.02-1.91,2.49-2.55-.94-2.6,3.39ZM43.33,46.86l-4.51-1.68-.02.03,2.79,3.92,1.74-2.27Z"/>
        <path class="cls-4" d="M58.14,36.46c-.58.16-1.1.15-1.56-.03l-.03.02c.14.45.16.87.06,1.25-.1.39-.35.76-.76,1.1-.39.33-.83.53-1.34.58s-1.03-.05-1.58-.32c-.55-.27-1.07-.7-1.58-1.29-.5-.59-.84-1.2-1.01-1.83s-.17-1.22-.01-1.76c.16-.55.45-1,.88-1.36.39-.33.76-.51,1.1-.54.35-.03.71.04,1.09.21l.03-.02-.58-.88,1.82-1.55,2.41,3.69c.12.17.21.3.27.37.48.57.97.64,1.47.22.4-.34.56-.76.49-1.28s-.39-1.11-.96-1.78c-.62-.73-1.35-1.26-2.19-1.61-.84-.34-1.73-.44-2.67-.28-.94.16-1.85.61-2.72,1.36-.81.68-1.37,1.5-1.7,2.44-.33.94-.4,1.9-.21,2.86s.61,1.83,1.27,2.61c.74.87,1.54,1.48,2.42,1.85s1.77.45,2.69.27c.92-.19,1.81-.64,2.66-1.38.43-.37.81-.75,1.14-1.14.32-.39.62-.83.88-1.31l1.32.69c-.22.57-.52,1.08-.9,1.55s-.85.93-1.41,1.41c-1.15.98-2.34,1.6-3.56,1.86-1.22.26-2.41.18-3.56-.26-1.15-.44-2.19-1.2-3.12-2.29-.85-1-1.39-2.13-1.61-3.38-.22-1.25-.1-2.5.36-3.72.46-1.23,1.24-2.31,2.33-3.24,1.16-.99,2.35-1.59,3.58-1.82,1.22-.23,2.38-.12,3.48.31,1.09.44,2.04,1.12,2.84,2.06.96,1.13,1.42,2.16,1.38,3.08-.04.92-.48,1.74-1.32,2.45-.46.39-.98.67-1.56.83ZM55.57,35.81c-.08-.42-.34-.88-.78-1.4-.35-.41-.67-.66-.97-.75-.3-.09-.6-.02-.89.23-.31.26-.44.62-.39,1.06.05.45.29.92.73,1.44.69.81,1.3,1,1.81.57.41-.35.57-.73.49-1.15Z"/>
        <path class="cls-4" d="M61.54,23.64c-.34-.05-.61-.24-.82-.57-.2-.33-.25-.65-.14-.98.11-.33.33-.6.68-.81.35-.21.69-.3,1.03-.25.34.05.61.24.81.56.21.33.26.66.15.99-.11.32-.34.59-.68.8-.35.21-.69.3-1.02.25ZM64.3,23.56l4.69,7.59c.56.9.8,1.66.74,2.29-.06.63-.51,1.2-1.34,1.71-.3.18-.56.33-.78.43-.22.1-.49.21-.79.31l-1.1-1.78c.39-.24.67-.43.81-.55.15-.12.22-.27.23-.44,0-.17-.08-.39-.26-.68l-4.58-7.41,2.37-1.47Z"/>
        <path class="cls-4" d="M71.25,22c-.23-.04-.52.01-.85.18-.45.22-.74.48-.89.77-.14.29-.14.64,0,1.04l-2.35,1.15c-.37-.85-.37-1.7,0-2.53s1.17-1.55,2.4-2.16c1.17-.57,2.17-.74,3.01-.51.84.24,1.56.96,2.16,2.18l1.81,3.68c.1.21.22.34.34.4.12.06.26.04.42-.03l.29.59c-.37.39-.81.71-1.33.97-.52.25-.94.34-1.26.24-.32-.1-.56-.31-.72-.63l-.03.02c-.12.45-.35.88-.7,1.31-.35.43-.77.77-1.29,1.02-.82.41-1.57.51-2.24.32-.67-.19-1.18-.64-1.52-1.33-.38-.76-.41-1.48-.1-2.16.31-.68.92-1.36,1.82-2.05.46-.36.8-.62,1.01-.81.21-.18.38-.38.5-.6.12-.22.13-.43.03-.63-.12-.24-.3-.38-.53-.43ZM73.28,26.53c.14-.42.11-.83-.09-1.24l-.48-.97c-.25.26-.62.59-1.11.99-.78.63-1.03,1.22-.76,1.77.31.63.79.78,1.46.45.51-.25.84-.58.97-1Z"/>
        <path class="cls-4" d="M79.86,18.74v-.03s-3.77,1.33-3.77,1.33l-.7-1.97,7.05-2.5.67,1.89-2.49,5.97v.03s4.27-1.51,4.27-1.51l.7,1.97-7.54,2.68-.67-1.89,2.49-5.97Z"/>
        <path class="cls-4" d="M88.71,16.18v-.03s-3.89.92-3.89.92l-.48-2.04,7.28-1.71.46,1.95-3.13,5.66v.03s4.4-1.03,4.4-1.03l.48,2.04-7.79,1.83-.46-1.95,3.13-5.66Z"/>
        <path class="cls-4" d="M98.67,14.22c-.21-.12-.5-.16-.86-.12-.5.06-.86.2-1.09.43-.23.23-.34.56-.34.99l-2.6.31c-.06-.93.22-1.72.84-2.39.62-.67,1.62-1.08,2.98-1.24,1.29-.15,2.3.02,3.01.52.72.5,1.15,1.43,1.31,2.78l.48,4.07c.03.23.09.39.19.49.1.09.23.13.41.11l.08.66c-.47.24-1,.4-1.58.47s-1,0-1.27-.19c-.27-.2-.42-.47-.47-.83h-.03c-.26.39-.62.72-1.09,1.01-.47.29-.99.47-1.55.53-.91.11-1.65-.04-2.22-.45-.57-.41-.9-.99-.99-1.75-.1-.84.11-1.53.62-2.07.52-.54,1.31-.98,2.4-1.33.55-.18.96-.32,1.22-.42.26-.1.49-.23.67-.4s.27-.36.24-.59c-.03-.26-.15-.46-.36-.58ZM99.08,19.17c.27-.35.38-.75.32-1.2l-.13-1.07c-.32.17-.78.36-1.37.57-.94.33-1.38.81-1.31,1.42.08.69.49,1,1.23.91.56-.07.98-.27,1.25-.62Z"/>
        <path class="cls-4" d="M111.63,12.42c.54.55.81,1.33.81,2.34v6.03h-2.79v-5.14c0-.66-.11-1.13-.34-1.39-.23-.27-.6-.4-1.11-.4-.48,0-.87.15-1.17.44-.3.3-.45.74-.46,1.33v5.16s-2.79,0-2.79,0v-12.46s2.79,0,2.79,0v4.83s.03,0,.03,0c.27-.46.63-.84,1.09-1.13.46-.29,1.02-.44,1.68-.44.95,0,1.7.28,2.24.83Z"/>
        <path class="cls-4" d="M118.93,19.43c.27-.14.48-.33.61-.57l2.75.32c-.36.89-.93,1.56-1.71,2s-1.75.59-2.91.46c-.97-.11-1.79-.41-2.45-.89-.66-.48-1.14-1.1-1.44-1.85-.3-.75-.39-1.59-.29-2.52.11-.9.38-1.69.84-2.36s1.05-1.17,1.79-1.49c.74-.32,1.57-.43,2.5-.32,1.48.17,2.55.8,3.22,1.87.67,1.07.91,2.44.71,4.1l-6.37-.75c-.07.59.06,1.08.39,1.46.33.38.76.61,1.29.67.44.05.79,0,1.07-.13ZM117.03,14.43c-.37.28-.58.72-.65,1.32l3.6.42c.07-.6-.04-1.08-.33-1.43-.29-.36-.71-.57-1.25-.63-.54-.06-1,.04-1.36.32Z"/>
        <path class="cls-4" d="M129.19,16.26c-.15-.19-.41-.32-.77-.4-.49-.11-.88-.1-1.17.03s-.51.41-.66.81l-2.55-.59c.26-.89.79-1.55,1.6-1.96s1.89-.46,3.22-.15c1.27.3,2.15.8,2.66,1.51.5.71.6,1.73.29,3.06l-.93,3.99c-.05.23-.05.4.01.52.06.12.18.2.35.24l-.15.65c-.53.07-1.08.04-1.64-.1-.57-.13-.94-.34-1.13-.61-.19-.28-.24-.59-.16-.94h-.03c-.37.26-.83.45-1.37.57-.54.11-1.09.1-1.64-.02-.89-.21-1.54-.6-1.94-1.18-.4-.58-.51-1.24-.33-1.98.19-.83.62-1.4,1.29-1.73.67-.33,1.57-.47,2.71-.43.58.02,1.01.02,1.29.02.28,0,.54-.05.77-.14.23-.09.37-.25.42-.47.06-.26.01-.48-.14-.67ZM127.89,21.05c.37-.24.61-.57.71-1.02l.25-1.05c-.36.05-.85.07-1.48.07-1,0-1.57.29-1.71.89-.16.68.12,1.1.85,1.27.55.13,1.02.08,1.39-.16Z"/>
        <path class="cls-4" d="M144.38,15.43l-4.19,11.74-2.63-.94.3-.84h-.03c-.29.19-.7.33-1.22.4-.52.07-1.05.01-1.6-.18-.74-.26-1.33-.68-1.74-1.23-.42-.56-.66-1.22-.72-2.01-.06-.78.07-1.62.4-2.53.32-.91.76-1.65,1.3-2.21s1.15-.93,1.83-1.1c.68-.17,1.39-.12,2.13.15.55.2,1,.49,1.35.87.36.39.58.75.68,1.1h.03s1.49-4.16,1.49-4.16l2.63.94ZM137.9,23.7c.46-.32.83-.88,1.11-1.69.29-.81.36-1.48.21-2.02-.15-.53-.5-.9-1.04-1.09-.55-.19-1.05-.13-1.5.19-.46.32-.83.88-1.12,1.69-.29.81-.36,1.48-.21,2.02.15.53.5.9,1.04,1.09.55.2,1.05.13,1.5-.19Z"/>
        <path class="cls-4" d="M141.76,27.69c-.14-.36-.12-.75.06-1.15.18-.4.46-.67.82-.8.37-.13.75-.11,1.14.07.38.17.64.44.79.81.15.37.13.75-.05,1.15-.18.4-.46.67-.83.8-.37.13-.75.11-1.13-.06-.39-.18-.66-.45-.8-.81ZM149.14,17.63l-1.13,2.47-3.06,4.83-1.27-.58,1.63-5.48,1.13-2.48,2.7,1.23Z"/>
        <path class="cls-4" d="M157.87,28.92l-1.5,1.6,1.06.64-1.46,1.56-1.07-.65-1.83,1.93-1.79-1.09,1.83-1.93-1.37-.83-1.83,1.93-1.79-1.09,1.83-1.93-1.12-.68,1.46-1.56,1.13.69,1.5-1.6-1.13-.69,1.47-1.55,1.13.69,2.19-2.32,1.79,1.09-2.19,2.32,1.37.83,2.19-2.32,1.79,1.09-2.19,2.32,1.06.64-1.47,1.55-1.06-.64ZM156.09,27.83l-1.37-.83-1.5,1.6,1.37.83,1.5-1.6Z"/>
        <path class="cls-4" d="M160.93,29.94c.9-1.15,1.92-1.81,3.06-1.97,1.13-.16,2.33.25,3.57,1.22,1.03.81,1.66,1.71,1.88,2.71.22,1-.02,1.95-.72,2.84-.45.58-.99.99-1.63,1.25s-1.28.41-1.92.45c-.65.05-1.44.06-2.38.03-.17,0-.46,0-.87,0-.41,0-.77,0-1.06.04l-.02.03,4.02,3.15-1.47,1.88-7.31-5.71c.56-.71,1.19-1.21,1.9-1.49.71-.28,1.47-.44,2.31-.46.63-.01,1.32,0,2.06.02.78.02,1.39.02,1.82,0,.44-.02.84-.09,1.2-.21s.66-.33.89-.62c.29-.37.41-.73.37-1.09-.04-.36-.25-.69-.61-.97-.99-.77-1.95-.56-2.89.64l-2.2-1.72Z"/>
      </g>
    </g>
  </g>
</svg>