<?xml version="1.0" encoding="UTF-8"?>
<svg id="Layer_2" data-name="Layer 2" xmlns="http://www.w3.org/2000/svg" viewBox="0 0 1000 1000">
  <defs>
    <style>
      .cls-1, .cls-2, .cls-3, .cls-4 {
        stroke-width: 0px;
      }

      .cls-2 {
        fill: none;
      }

      .cls-3 {
        fill: #fff;
      }

      .cls-4 {
        fill: #ffcb4f;
      }
    </style>
  </defs>
  <g id="Layer_1-2" data-name="Layer 1">
    <g>
      <g>
        <g>
          <path class="cls-1" d="M584.75,423.14c-2.6-15.64-18.29-25.08-32.36-32.39-28.16-14.63-56.95-29.47-88.3-34.35-12.85-2-25.89-2.28-38.89-2.56-54.65-1.17-111.15-2.01-161.63,18.97-17.11,7.11-33.13,16.59-48.82,26.46-25.53,16.07-50.57,33.45-71.16,55.49-38.2,40.9-58.88,95.93-65.82,151.47-6.94,55.53-1.01,111.91,8.46,167.06,6.41,37.29,14.6,74.8,31.85,108.47,17.25,33.67,44.58,63.52,79.97,76.89,25.86,9.77,54.16,10.26,81.8,10.45,40.87.29,82.24.13,121.88-9.84,51.82-13.03,97.99-42.13,142.1-72.28,19.66-13.44,39.22-27.26,56.04-44.12,28.26-28.32,47.84-64.35,61.61-101.92,35.68-97.31,31.71-212.56-26.84-298.08-23.35-34.1-59.51-64.56-100.78-62.43"/>
          <g>
            <path class="cls-4" d="M576.26,399.97c-2.6-15.64-18.29-25.08-32.36-32.39-28.16-14.63-56.95-29.47-88.3-34.35-12.85-2-25.89-2.28-38.89-2.56-54.65-1.17-111.15-2.01-161.63,18.97-17.11,7.11-33.13,16.59-48.82,26.46-25.53,16.07-50.57,33.45-71.16,55.49-38.2,40.9-58.88,95.93-65.82,151.47-6.94,55.53-1.01,111.91,8.46,167.06,6.41,37.29,14.6,74.8,31.85,108.47,17.25,33.67,44.58,63.52,79.97,76.89,25.86,9.77,54.16,10.26,81.8,10.45,40.87.29,82.24.13,121.88-9.84,51.82-13.03,97.99-42.13,142.1-72.28,19.66-13.44,39.22-27.26,56.04-44.12,28.26-28.32,47.84-64.35,61.61-101.92,35.68-97.31,31.71-212.56-26.84-298.08-23.35-34.1-59.51-64.56-100.78-62.43"/>
            <path class="cls-1" d="M578.67,399.3c-2.53-13.86-14.25-22.98-25.76-29.66-14.78-8.58-30.42-16.19-46.06-23.06s-33.04-13.03-50.58-15.77c-18.21-2.84-36.83-2.65-55.21-2.96-35.18-.58-70.73-.24-105.34,6.88-17.31,3.56-34.18,8.93-50.2,16.41s-31.79,17.15-46.96,26.89c-28.52,18.31-56.02,38.83-77.1,65.66-19.97,25.42-34.24,54.9-43.51,85.79-21.13,70.36-15.4,145.12-3.41,216.57,10.77,64.21,28.15,134.08,83.39,174.89,12.52,9.25,26.59,16.22,41.58,20.43,17.13,4.81,35.02,6.27,52.74,6.78,36.7,1.06,74.04,1.29,110.48-3.7,35.4-4.85,68.81-16.64,100.42-33.11,30.78-16.04,59.87-35.49,88.15-55.56,14.42-10.23,28.5-21.06,41.07-33.53,11.75-11.66,22.1-24.72,31.11-38.59,17.67-27.18,30.53-57.58,39.65-88.63,17.63-60.02,20.74-125.1,5.46-185.97-7.53-29.99-19.66-58.91-36.46-84.9-16.31-25.22-38.08-48.84-65.92-61.27-12.86-5.74-26.72-8.77-40.83-8.13-3.2.15-3.22,5.15,0,5,30.15-1.37,57.16,14.85,77.7,35.7s36.96,48.61,48.22,76.5c22.8,56.51,27.09,119.55,16.84,179.34-5.27,30.76-14.35,60.96-27.13,89.43s-31.01,57.67-54.57,80.32c-12.46,11.98-26.28,22.42-40.41,32.34s-28.1,19.35-42.47,28.53c-28.4,18.14-58.14,34.7-90.14,45.58-34.4,11.7-70.47,15.18-106.62,15.84-17.8.33-35.64.3-53.43-.17-17.67-.47-35.46-1.84-52.54-6.63-29.03-8.15-53.43-27.21-71.47-51.05-19.99-26.41-31.83-57.8-39.77-89.71-8.75-35.16-14.38-71.5-17.97-107.53-3.66-36.71-4.37-74,.87-110.6,4.45-31.04,13.14-61.67,27.09-89.82,14.44-29.15,34.5-54.52,59.49-75.33,12.98-10.81,26.89-20.43,41.08-29.57s29.9-18.89,45.83-26.52c31.44-15.05,66.03-21.03,100.61-22.92,17.38-.95,34.8-.95,52.21-.68s36.04.01,53.79,2.47,34.51,8.11,50.7,15.16c15.22,6.63,30.25,14.12,44.76,22.19,11.23,6.25,23.32,14.46,25.79,27.99.58,3.16,5.4,1.82,4.82-1.33h0Z"/>
          </g>
          <path class="cls-1" d="M187.38,440.73c15.68,12.77,31.16,26,44.26,41.47s23,32.45,27.82,51.69c2.65,10.57,3.59,21.67,2.14,32.51-.18,1.34.32,2.68,1.75,3.08,1.16.32,2.89-.4,3.08-1.75,2.75-20.44-2.03-40.93-11.18-59.24-9.24-18.48-22.93-34.36-37.88-48.45-8.48-8-17.41-15.48-26.45-22.84-1.05-.85-2.51-1.02-3.54,0-.88.88-1.05,2.68,0,3.54h0Z"/>
          <path class="cls-1" d="M297.01,466.84c-18.55,4.26-37.04,8.78-55.47,13.56s-36.78,9.83-55.06,15.13c-10.36,3-20.69,6.09-31,9.26-3.07.94-1.76,5.77,1.33,4.82,18.19-5.59,36.47-10.93,54.81-16.01s36.76-9.89,55.24-14.45c10.47-2.58,20.96-5.08,31.47-7.49,3.13-.72,1.81-5.54-1.33-4.82h0Z"/>
          <path class="cls-1" d="M419.48,440.8c19.18,16.23,38.49,32.31,57.94,48.23,19.44,15.92,39.02,31.68,58.72,47.27,11.13,8.81,22.3,17.57,33.52,26.28,1.07.83,2.5,1.04,3.54,0,.86-.86,1.07-2.7,0-3.54-19.85-15.41-39.57-30.99-59.16-46.72-19.59-15.74-39.05-31.63-58.38-47.69-10.92-9.07-21.8-18.19-32.63-27.36-1.03-.87-2.53-1.01-3.54,0-.89.89-1.04,2.66,0,3.54h0Z"/>
          <path class="cls-1" d="M540.27,446.96c-5.3,3.73-10.22,8.04-15.14,12.24-7.62,6.5-15.14,13.11-22.66,19.73-8.53,7.51-17.03,15.05-25.55,22.57-7.76,6.85-15.53,13.69-23.38,20.44-3.09,2.66-6.19,5.3-9.33,7.89-1.25,1.04-2.51,2.06-3.78,3.08-.53.42-1.05.83-1.58,1.24-.33.26.46-.35.03-.03-.12.09-.24.18-.36.27-.24.18-.48.36-.72.54-.41.31-.83.61-1.25.91-1.1.78-1.62,2.19-.9,3.42.64,1.09,2.31,1.68,3.42.9,5.3-3.73,10.22-8.04,15.14-12.24,7.62-6.5,15.14-13.11,22.66-19.73,8.53-7.51,17.03-15.05,25.55-22.57,7.76-6.85,15.53-13.69,23.38-20.44,3.09-2.66,6.19-5.3,9.33-7.89,1.25-1.04,2.51-2.06,3.78-3.08.53-.42,1.05-.83,1.58-1.24.33-.26-.46.35-.03.03.12-.09.24-.18.36-.27.24-.18.48-.36.72-.54.41-.31.83-.61,1.25-.91,1.1-.78,1.62-2.19.9-3.42-.64-1.09-2.31-1.68-3.42-.9h0Z"/>
          <path class="cls-1" d="M114.29,682.17c9.94,39.91,13.76,81.66,29.45,119.99,7.35,17.94,17.3,34.58,30.4,48.93,12.42,13.6,27.26,25.03,43.47,33.74,35.13,18.88,75.97,24.15,115,16.57,20.31-3.94,39.97-11.33,57.88-21.68,17.9-10.35,34.09-23.51,48.67-38.12,29.83-29.89,54.34-65.6,72.93-103.44,2.31-4.71,4.53-9.46,6.66-14.25,1.3-2.91-3.01-5.46-4.32-2.52-17.03,38.26-39.9,74.16-67.99,105.27-27.21,30.13-60.26,54.99-99.72,66.24-37.93,10.82-79.36,9.18-115.56-6.96-33.72-15.03-61.52-41.09-77.77-74.31-17.74-36.27-22.4-77.11-30.89-116.12-1.07-4.9-2.2-9.79-3.41-14.66-.78-3.12-5.6-1.8-4.82,1.33h0Z"/>
          <path class="cls-1" d="M343,575.59c-22.28,15.45-45.23,29.93-68.77,43.36-6.61,3.77-13.27,7.46-19.97,11.07-1.77.95-1.46,3.3,0,4.32,7.25,5.05,15.71,7.98,24.2,10.16,8.95,2.3,18.02,4.1,26.99,6.31,18.94,4.68,37.69,10.16,56.17,16.42,10.41,3.53,20.73,7.3,30.97,11.32,1.26.49,2.74-.54,3.08-1.75.39-1.42-.48-2.58-1.75-3.08-18.09-7.1-36.47-13.45-55.1-19.01-9.23-2.76-18.53-5.32-27.87-7.69s-18.27-4.27-27.4-6.43c-9.4-2.22-18.76-5.01-26.77-10.58v4.32c23.87-12.86,47.17-26.75,69.82-41.65,6.36-4.18,12.66-8.44,18.92-12.78,1.11-.77,1.62-2.19.9-3.42-.64-1.1-2.31-1.67-3.42-.9h0Z"/>
        </g>
        <g>
          <path class="cls-1" d="M820.87,550.58c-11.12-3.86-22.32-7.49-33.6-10.87-2.97-.89-6.08-1.78-9.14-1.26-2.24.38-4.28,1.48-6.27,2.56-4.29,2.34-8.59,4.67-12.88,7.01-3.45,1.88-6.97,3.81-9.61,6.72-3.87,4.26-5.41,10.11-6.4,15.78-1.18,6.77-1.77,13.65-1.76,20.52.02,8.21,1.23,17.15,7.11,22.88,3.26,3.17,7.58,4.97,11.83,6.59,9.16,3.49,18.52,6.47,28.02,8.92,3.51.91,7.19,1.74,10.72.91,4.63-1.1,8.1-4.84,11.24-8.41,8.8-9.98,17.75-20.66,20.57-33.66,2.83-13.07-1.36-27.44-10.78-36.94"/>
          <g>
            <path class="cls-3" d="M820.87,537.1c-11.12-3.86-22.32-7.49-33.6-10.87-2.97-.89-6.08-1.78-9.14-1.26-2.24.38-4.28,1.48-6.27,2.56-4.29,2.34-8.59,4.67-12.88,7.01-3.45,1.88-6.97,3.81-9.61,6.72-3.87,4.26-5.41,10.11-6.4,15.78-1.18,6.77-1.77,13.65-1.76,20.52.02,8.21,1.23,17.15,7.11,22.88,3.26,3.17,7.58,4.97,11.83,6.59,9.16,3.49,18.52,6.47,28.02,8.92,3.51.91,7.19,1.74,10.72.91,4.63-1.1,8.1-4.84,11.24-8.41,8.8-9.98,17.75-20.66,20.57-33.66,2.83-13.07-1.36-27.44-10.78-36.94"/>
            <path class="cls-1" d="M821.53,534.69c-10.43-3.62-20.92-7.04-31.48-10.23-5.19-1.57-10.33-3.15-15.6-.97-2.52,1.04-4.89,2.46-7.28,3.76s-4.72,2.57-7.09,3.86c-4.26,2.32-8.81,4.52-12.2,8.09s-5.17,7.89-6.33,12.44c-1.28,5.02-1.94,10.24-2.39,15.39-.44,5.02-.65,10.11-.3,15.14.63,9.01,3.48,17.86,11.42,22.98,4.18,2.7,9.07,4.3,13.73,5.98,5.07,1.82,10.19,3.49,15.36,5.01s10.46,3.38,15.79,3.57,9.51-2.2,13.16-5.67c3.28-3.13,6.2-6.73,9.09-10.21,3.1-3.74,6.08-7.61,8.65-11.73,4.89-7.84,8.14-16.75,8-26.08-.13-8.82-2.96-17.7-8.13-24.85-1.29-1.79-2.7-3.48-4.25-5.06-2.26-2.3-5.79,1.24-3.54,3.54,5.59,5.69,9.16,13.05,10.45,20.91,1.33,8.07-.23,16.26-3.81,23.56-3.88,7.91-9.55,14.74-15.32,21.33-2.68,3.06-5.39,6.43-9.1,8.27-4.23,2.1-9.14.49-13.4-.65-9.63-2.56-19.23-5.58-28.47-9.34-3.72-1.51-7.41-3.49-9.92-6.71-2.36-3.02-3.55-6.81-4.21-10.54-.72-4.06-.73-8.24-.61-12.35.14-5.09.6-10.18,1.42-15.21.68-4.12,1.49-8.4,3.43-12.14s5.15-6.39,8.87-8.54c4.3-2.48,8.72-4.78,13.08-7.15,2.1-1.15,4.21-2.52,6.5-3.27s4.4-.54,6.63,0c4.94,1.2,9.81,2.9,14.65,4.43s9.81,3.15,14.69,4.8c2.4.81,4.8,1.63,7.19,2.46,1.28.44,2.73-.51,3.08-1.75.38-1.38-.47-2.63-1.75-3.08h0Z"/>
          </g>
          <path class="cls-1" d="M753.2,557.71c.44,3.89.87,7.78,1.31,11.67.38,3.35.66,6.73,1.27,10.05.99,5.31,3.28,11.17,8.59,13.46,1.24.53,2.68.37,3.42-.9.62-1.05.35-2.88-.9-3.42-4.37-1.88-5.67-6.78-6.41-11.15-1.11-6.5-1.55-13.16-2.28-19.71-.15-1.34-1.04-2.5-2.5-2.5-1.23,0-2.65,1.15-2.5,2.5h0Z"/>
        </g>
        <g>
          <g>
            <path class="cls-1" d="M737.3,410.55c-26.12-10.02-51.81-21.17-76.97-33.41-1.51-.73-3.12-1.57-3.83-3.09-1.17-2.48.64-5.33,2.63-7.22,14.26-13.57,37.39-9.05,55.85-2.21,18.34,6.8,36.15,15.03,53.21,24.59,20.75-15.17,42.34-29.18,64.65-41.95,3.58-2.05,7.4-4.13,11.53-4.08,10.3.11,17.28,13.01,27.57,12.54-14.16,19.69-32.54,36.32-53.55,48.44,10.86,9.43,22,18.54,33.4,27.32-2.47,5.05-4.93,10.09-7.4,15.14-.77,1.57-1.66,3.26-3.26,3.95-1.9.82-4.06-.06-5.94-.93-15.62-7.24-31.24-14.48-46.86-21.73-6.14-2.85-12.62-5.76-19.37-5.24-10.05.77-17.83,8.8-24.37,16.47-6.5,7.62-13.12,15.67-22.25,19.76-9.13,4.1-21.6,2.75-26.89-5.75,9.29-13.17,19.71-25.55,31.12-36.94"/>
            <g>
              <path class="cls-3" d="M737.3,397.55c-26.12-10.02-51.81-21.17-76.97-33.41-1.51-.73-3.12-1.57-3.83-3.09-1.17-2.48.64-5.33,2.63-7.22,14.26-13.57,37.39-9.05,55.85-2.21,18.34,6.8,36.15,15.03,53.21,24.59,20.75-15.17,42.34-29.18,64.65-41.95,3.58-2.05,7.4-4.13,11.53-4.08,10.3.11,17.28,13.01,27.57,12.54-14.16,19.69-32.54,36.32-53.55,48.44,10.86,9.43,22,18.54,33.4,27.32-2.47,5.05-4.93,10.09-7.4,15.14-.77,1.57-1.66,3.26-3.26,3.95-1.9.82-4.06-.06-5.94-.93-15.62-7.24-31.24-14.48-46.86-21.73-6.14-2.85-12.62-5.76-19.37-5.24-10.05.77-17.83,8.8-24.37,16.47-6.5,7.62-13.12,15.67-22.25,19.76s-21.6,2.75-26.89-5.75c9.29-13.17,19.71-25.55,31.12-36.94"/>
              <path class="cls-1" d="M737.97,395.14c-14.06-5.4-27.99-11.12-41.78-17.17-6.92-3.04-13.81-6.15-20.65-9.35-3.5-1.63-6.98-3.29-10.46-4.96-1.48-.71-3-1.39-4.45-2.17-.92-.5-2.03-1.07-1.99-2.26.09-2.44,3.29-4.72,5.09-5.99,2.1-1.49,4.39-2.71,6.82-3.58,5.21-1.86,10.74-2.33,16.23-2.05,12.31.63,24.09,4.93,35.43,9.43,15.36,6.09,30.3,13.24,44.73,21.31.72.4,1.81.52,2.52,0,14.41-10.53,29.23-20.51,44.41-29.9,7.48-4.63,15-9.36,22.78-13.45,3.1-1.63,6.62-2.85,9.92-2.07,2.68.63,5.04,2.11,7.35,3.71,5.48,3.82,10.91,8.79,18.04,8.56l-2.16-3.76c-10.8,14.99-24.14,28.23-39.21,38.92-4.35,3.08-8.83,5.96-13.45,8.62-1.32.76-1.73,2.86-.51,3.93,11.03,9.57,22.34,18.8,33.91,27.71l-.9-3.42c-1.6,3.27-3.19,6.53-4.79,9.8-.8,1.63-1.59,3.27-2.39,4.9-.49,1-.98,2.47-1.94,3.14s-2.13.21-3.1-.16c-1.7-.66-3.35-1.53-5.01-2.29-3.23-1.5-6.46-2.99-9.69-4.49-6.53-3.03-13.07-6.06-19.6-9.09s-12.91-6.21-19.52-8.92c-5.94-2.43-12.32-3.85-18.68-2.29-5.66,1.39-10.6,4.87-14.8,8.79-8.46,7.88-14.56,18.3-24.43,24.65-4.76,3.06-10.06,4.74-15.75,4.32-4.81-.36-9.64-2.49-12.31-6.67v2.52c9.18-13,19.48-25.18,30.72-36.43,2.28-2.28-1.26-5.82-3.54-3.54-11.55,11.56-22.08,24.1-31.51,37.44-.49.69-.44,1.83,0,2.52,5.87,9.21,18.48,11.1,28.18,7.52,11.72-4.33,19.2-14.73,27.21-23.69,3.83-4.29,8.03-8.45,13.23-11.04,5.62-2.8,11.57-2.42,17.38-.42,3.29,1.13,6.43,2.65,9.59,4.11s6.61,3.06,9.91,4.6c6.76,3.13,13.52,6.27,20.28,9.4,3.9,1.81,7.81,3.62,11.71,5.43,3.3,1.53,7.26,4.05,11.02,2.65s4.95-5.5,6.5-8.66c1.89-3.86,3.77-7.72,5.66-11.58.65-1.33.24-2.54-.9-3.42-11.22-8.65-22.19-17.65-32.89-26.93l-.51,3.93c16.62-9.61,31.67-21.99,44.27-36.47,3.59-4.13,6.98-8.43,10.18-12.86,1.12-1.55-.38-3.82-2.16-3.76-2.68.09-5.04-.82-7.42-2.22-2.61-1.54-4.98-3.44-7.44-5.2s-5.11-3.41-8.04-4.35c-3.58-1.16-7.4-.91-10.89.41-4.13,1.57-7.92,4-11.72,6.22s-7.79,4.6-11.65,6.95c-7.72,4.71-15.35,9.57-22.87,14.59-8.45,5.63-16.78,11.44-24.98,17.43h2.52c-13.71-7.67-27.89-14.48-42.44-20.42-12.34-5.03-25-9.81-38.39-10.89-5.93-.48-12.04-.15-17.76,1.57s-11.97,5.06-15.48,10.08c-2.06,2.94-2.48,6.83.16,9.57,1.1,1.14,2.56,1.86,3.96,2.54,1.88.91,3.76,1.82,5.65,2.72,7.25,3.47,14.55,6.84,21.89,10.13,16.34,7.32,32.88,14.19,49.59,20.6,1.26.48,2.74-.53,3.08-1.75.39-1.41-.48-2.59-1.75-3.08h0Z"/>
            </g>
          </g>
          <path class="cls-1" d="M798.61,391.38c9.79-4.73,19.75-9.1,29.87-13.08,1.26-.49,2.13-1.67,1.75-3.08-.33-1.2-1.81-2.24-3.08-1.75-10.52,4.14-20.89,8.67-31.07,13.59-1.22.59-1.54,2.32-.9,3.42.73,1.24,2.2,1.49,3.42.9h0Z"/>
          <path class="cls-1" d="M802.59,396.49c1.01.92,2.02,1.83,3.03,2.75.49.44,1.09.73,1.77.73.34.01.67-.06.96-.22.31-.1.58-.27.8-.52.44-.48.76-1.1.73-1.77s-.24-1.32-.73-1.77c-1.01-.92-2.02-1.83-3.03-2.75-.49-.44-1.09-.73-1.77-.73-.34-.01-.67.06-.96.22-.31.1-.58.27-.8.52-.44.48-.76,1.1-.73,1.77s.24,1.32.73,1.77h0Z"/>
          <path class="cls-1" d="M717.71,383.15c2.81,2.23,6,3.9,9.51,4.75,1.27.31,2.77-.4,3.08-1.75s-.39-2.75-1.75-3.08c-1.13-.27-2.23-.63-3.3-1.08l.6.25c-.89-.38-1.76-.81-2.59-1.3-.4-.23-.78-.48-1.16-.74-.2-.14-.4-.27-.59-.42-.1-.07-.19-.14-.29-.22-.38-.28.44.35.05.04-.54-.43-1.05-.73-1.77-.73-.61,0-1.35.27-1.77.73s-.76,1.1-.73,1.77c.03.62.22,1.37.73,1.77h0Z"/>
          <path class="cls-1" d="M669.67,360.35c2.92.11,5.85-.65,8.38-2.1,1.14-.65,1.62-2.29.9-3.42s-2.21-1.59-3.42-.9c-.47.27-.96.51-1.47.73l.6-.25c-1.09.45-2.22.76-3.39.92l.66-.09c-.75.1-1.5.13-2.26.1-1.31-.05-2.56,1.18-2.5,2.5.06,1.39,1.1,2.45,2.5,2.5h0Z"/>
        </g>
        <g>
          <g>
            <path class="cls-1" d="M922.08,598.63c-12.59,36.65-34.83,69.07-56.8,100.98-9.53,13.84-19.14,27.77-31.18,39.5-19.81,19.29-45.13,31.63-69.03,45.52-19.84,11.53-38.93,24.31-58.01,37.07-15.42,10.32-30.86,20.65-45.53,32.03-19.42,15.06-38.58,33.96-42.01,58.3-3.67,26,12.5,51.83,34.53,66.11,22.03,14.28,48.91,18.92,75.11,20.7,21.16,1.44,42.4,1.22,63.61,1.01,12.26-.12,24.66-.27,36.55-3.27,12.76-3.23,24.45-9.64,35.99-15.99,15.02-8.27,30.19-16.64,42.92-28.11,12.74-11.48,23.01-26.51,25.52-43.47-71.35-.45-142.72,2.03-213.86,7.42.73-11.05,1.45-22.1,2.18-33.14.19-2.94.45-6.06,2.2-8.43,2.37-3.21,6.73-4.1,10.68-4.67,45.45-6.53,91.67-2.89,137.57-4.09,8.27-.22,17.02-.74,23.86-5.39s10.54-14.92,5.45-21.45c-43.45.7-86.9,1.41-130.35,2.11,24.03-8.34,48.05-16.67,72.08-25.01,11.27-3.91,22.77-7.94,32.19-15.28,12.96-10.1,20.67-25.43,26.78-40.69,18.28-45.7,25.84-95.65,21.91-144.72"/>
            <g>
              <path class="cls-3" d="M922.08,583.84c-12.59,36.65-34.83,69.07-56.8,100.98-9.53,13.84-19.14,27.77-31.18,39.5-19.81,19.29-45.13,31.63-69.03,45.52-19.84,11.53-38.93,24.31-58.01,37.07-15.42,10.32-30.86,20.65-45.53,32.03-19.42,15.06-38.58,33.96-42.01,58.3-3.67,26,12.5,51.83,34.53,66.11,22.03,14.28,48.91,18.92,75.11,20.7,21.16,1.44,42.4,1.22,63.61,1.01,12.26-.12,24.66-.27,36.55-3.27,12.76-3.23,24.45-9.64,35.99-15.99,15.02-8.27,30.19-16.64,42.92-28.11,12.74-11.48,23.01-26.51,25.52-43.47-71.35-.45-142.72,2.03-213.86,7.42.73-11.05,1.45-22.1,2.18-33.14.19-2.94.45-6.06,2.2-8.43,2.37-3.21,6.73-4.1,10.68-4.67,45.45-6.53,91.67-2.89,137.57-4.09,8.27-.22,17.02-.74,23.86-5.39,6.84-4.65,10.54-14.92,5.45-21.45-43.45.7-86.9,1.41-130.35,2.11,24.03-8.34,48.05-16.67,72.08-25.01,11.27-3.91,22.77-7.94,32.19-15.28,12.96-10.1,20.67-25.43,26.78-40.69,18.28-45.7,25.84-95.65,21.91-144.72"/>
              <path class="cls-1" d="M919.67,583.17c-9.37,27.14-24.08,52-39.88,75.84-7.88,11.9-15.94,23.71-24.19,35.35s-17.26,23.07-28.08,32.64c-20.72,18.32-46.16,30.13-69.72,44.21-13.17,7.87-26.04,16.24-38.82,24.73s-25.57,16.96-38.15,25.75c-11.48,8.03-22.93,16.28-33.35,25.67-9.27,8.36-17.87,17.88-23.68,29s-8.41,23.15-6.86,35.4,6.52,23.34,13.73,33c16.06,21.52,41.03,32.75,66.81,37.83,29.28,5.76,59.61,5.3,89.31,5.02,15.12-.14,30.61.16,45.29-3.99,13.92-3.93,26.59-11.3,39.16-18.26,23.25-12.88,47.59-27.93,59.38-52.86,2.65-5.6,4.57-11.5,5.51-17.63.24-1.58-.64-3.15-2.41-3.16-27.82-.17-55.64.09-83.46.81-27.81.71-55.61,1.87-83.39,3.48-15.68.9-31.36,1.95-47.02,3.14l2.5,2.5c.43-6.58.86-13.15,1.29-19.73l.62-9.47c.19-2.92.07-6.12,1-8.93,1.61-4.89,7.51-5.32,11.86-5.92,6.52-.9,13.08-1.58,19.65-2.11,25.9-2.08,51.92-1.66,77.88-1.47,12.82.09,25.65.15,38.47-.22,9.86-.29,21.68-1.21,28.52-9.33,2.92-3.47,4.87-7.82,5-12.39.06-2.13-.34-4.25-1.18-6.2-.4-.94-.88-1.87-1.53-2.66-1.25-1.52-2.74-1.23-4.56-1.2-13.06.21-26.12.42-39.18.64-29.59.48-59.18.96-88.76,1.44l.66,4.91c20.9-7.25,41.8-14.5,62.7-21.75,18.37-6.37,37.84-11.96,51.05-27.16,12.23-14.07,19.05-32.39,24.95-49.82,6.59-19.45,11.29-39.52,14.06-59.86,3.14-23.03,3.86-46.34,2.02-69.51-.25-3.19-5.25-3.21-5,0,3.18,40.26-1.28,80.98-13.17,119.57-2.9,9.41-6.2,18.71-10,27.79-3.39,8.1-7.32,16.06-12.43,23.23-5.3,7.45-12.02,13.58-20.03,18.01-8.45,4.69-17.7,7.68-26.79,10.84-22.9,7.95-45.8,15.89-68.7,23.84-2.56.89-2.29,4.96.66,4.91,33.85-.55,67.71-1.1,101.56-1.65,9.6-.16,19.19-.31,28.79-.47l-2.16-1.24c3.48,4.69,2,10.93-1.51,15.19-4.33,5.25-11.59,6.91-18.07,7.5-7.99.72-16.1.59-24.11.64-8.67.05-17.34-.01-26.01-.08-17.06-.13-34.13-.3-51.19.29-8.64.29-17.27.78-25.87,1.56-4.17.38-8.34.82-12.5,1.35-3.64.46-7.43.75-10.96,1.81s-6.53,2.92-8.13,6.17c-1.85,3.76-1.73,8.21-2,12.3-.64,9.73-1.28,19.46-1.92,29.2-.08,1.28,1.22,2.6,2.5,2.5,27.74-2.1,55.52-3.76,83.31-4.98,27.8-1.22,55.61-1.99,83.43-2.31,15.71-.18,31.42-.22,47.12-.13l-2.41-3.16c-4.08,26.55-25.37,45.23-47.1,58.56-11.86,7.28-24.18,14.22-36.73,20.23-6.41,3.06-13.04,5.67-19.96,7.32-7.37,1.75-14.93,2.4-22.48,2.68-15.2.56-30.49.51-45.7.34s-29.42-.68-44.02-2.34c-25.71-2.93-52.75-10.13-71.88-28.55-8.55-8.24-15.47-18.42-19.13-29.76-3.7-11.46-3.72-23.55.25-34.95,3.99-11.46,11.52-21.38,19.96-29.94,9.31-9.45,19.92-17.51,30.64-25.27,12.22-8.84,24.79-17.18,37.33-25.56,12.43-8.31,24.89-16.59,37.6-24.49,11.94-7.43,24.19-14.3,36.43-21.24s23.37-13.49,34.16-21.59,20.7-17.84,29.25-28.65,16.53-22.75,24.46-34.35c15.81-23.12,31.25-46.73,42.6-72.42,2.76-6.24,5.27-12.58,7.5-19.02,1.05-3.05-3.78-4.36-4.82-1.33h0Z"/>
            </g>
            <path class="cls-1" d="M809.91,972.2c20.7-2.62,39.76-11.32,58.25-20.57,5.39-2.7,10.76-5.43,16.15-8.15,2.87-1.45.34-5.77-2.52-4.32-18.06,9.12-36.08,19.02-55.62,24.61-5.32,1.52-10.75,2.73-16.25,3.42-1.34.17-2.5,1.03-2.5,2.5,0,1.22,1.15,2.67,2.5,2.5h0Z"/>
          </g>
          <path class="cls-1" d="M878.55,770.65c-4.03,6.58-12.15,9.17-19.27,11.39-3.06.95-1.76,5.78,1.33,4.82,8.37-2.61,17.44-5.82,22.26-13.69,1.69-2.75-2.64-5.27-4.32-2.52h0Z"/>
        </g>
      </g>
      <rect class="cls-2" width="1000" height="1000"/>
    </g>
  </g>
</svg>